G04 #@! TF.GenerationSoftware,KiCad,Pcbnew,6.0.2+dfsg-1*
G04 #@! TF.CreationDate,2024-02-05T13:25:34-05:00*
G04 #@! TF.ProjectId,megacart-ram,6d656761-6361-4727-942d-72616d2e6b69,rev?*
G04 #@! TF.SameCoordinates,Original*
G04 #@! TF.FileFunction,Legend,Top*
G04 #@! TF.FilePolarity,Positive*
%FSLAX46Y46*%
G04 Gerber Fmt 4.6, Leading zero omitted, Abs format (unit mm)*
G04 Created by KiCad (PCBNEW 6.0.2+dfsg-1) date 2024-02-05 13:25:34*
%MOMM*%
%LPD*%
G01*
G04 APERTURE LIST*
G04 Aperture macros list*
%AMRoundRect*
0 Rectangle with rounded corners*
0 $1 Rounding radius*
0 $2 $3 $4 $5 $6 $7 $8 $9 X,Y pos of 4 corners*
0 Add a 4 corners polygon primitive as box body*
4,1,4,$2,$3,$4,$5,$6,$7,$8,$9,$2,$3,0*
0 Add four circle primitives for the rounded corners*
1,1,$1+$1,$2,$3*
1,1,$1+$1,$4,$5*
1,1,$1+$1,$6,$7*
1,1,$1+$1,$8,$9*
0 Add four rect primitives between the rounded corners*
20,1,$1+$1,$2,$3,$4,$5,0*
20,1,$1+$1,$4,$5,$6,$7,0*
20,1,$1+$1,$6,$7,$8,$9,0*
20,1,$1+$1,$8,$9,$2,$3,0*%
G04 Aperture macros list end*
%ADD10C,0.200000*%
%ADD11C,0.150000*%
%ADD12C,0.120000*%
%ADD13RoundRect,0.200000X0.850000X-0.850000X0.850000X0.850000X-0.850000X0.850000X-0.850000X-0.850000X0*%
%ADD14O,2.100000X2.100000*%
%ADD15RoundRect,0.200000X-0.800000X-0.800000X0.800000X-0.800000X0.800000X0.800000X-0.800000X0.800000X0*%
%ADD16O,2.000000X2.000000*%
%ADD17C,2.000000*%
%ADD18RoundRect,0.200000X-0.850000X-0.850000X0.850000X-0.850000X0.850000X0.850000X-0.850000X0.850000X0*%
%ADD19RoundRect,0.200000X0.800000X-0.800000X0.800000X0.800000X-0.800000X0.800000X-0.800000X-0.800000X0*%
G04 APERTURE END LIST*
D10*
X156885800Y-152181520D02*
X156921360Y-152181520D01*
D11*
X203836380Y-140447380D02*
X203503047Y-139971190D01*
X203264952Y-140447380D02*
X203264952Y-139447380D01*
X203645904Y-139447380D01*
X203741142Y-139495000D01*
X203788761Y-139542619D01*
X203836380Y-139637857D01*
X203836380Y-139780714D01*
X203788761Y-139875952D01*
X203741142Y-139923571D01*
X203645904Y-139971190D01*
X203264952Y-139971190D01*
X204836380Y-140352142D02*
X204788761Y-140399761D01*
X204645904Y-140447380D01*
X204550666Y-140447380D01*
X204407809Y-140399761D01*
X204312571Y-140304523D01*
X204264952Y-140209285D01*
X204217333Y-140018809D01*
X204217333Y-139875952D01*
X204264952Y-139685476D01*
X204312571Y-139590238D01*
X204407809Y-139495000D01*
X204550666Y-139447380D01*
X204645904Y-139447380D01*
X204788761Y-139495000D01*
X204836380Y-139542619D01*
X205217333Y-139542619D02*
X205264952Y-139495000D01*
X205360190Y-139447380D01*
X205598285Y-139447380D01*
X205693523Y-139495000D01*
X205741142Y-139542619D01*
X205788761Y-139637857D01*
X205788761Y-139733095D01*
X205741142Y-139875952D01*
X205169714Y-140447380D01*
X205788761Y-140447380D01*
X206407809Y-139447380D02*
X206503047Y-139447380D01*
X206598285Y-139495000D01*
X206645904Y-139542619D01*
X206693523Y-139637857D01*
X206741142Y-139828333D01*
X206741142Y-140066428D01*
X206693523Y-140256904D01*
X206645904Y-140352142D01*
X206598285Y-140399761D01*
X206503047Y-140447380D01*
X206407809Y-140447380D01*
X206312571Y-140399761D01*
X206264952Y-140352142D01*
X206217333Y-140256904D01*
X206169714Y-140066428D01*
X206169714Y-139828333D01*
X206217333Y-139637857D01*
X206264952Y-139542619D01*
X206312571Y-139495000D01*
X206407809Y-139447380D01*
X207693523Y-140447380D02*
X207122095Y-140447380D01*
X207407809Y-140447380D02*
X207407809Y-139447380D01*
X207312571Y-139590238D01*
X207217333Y-139685476D01*
X207122095Y-139733095D01*
X208550666Y-139780714D02*
X208550666Y-140447380D01*
X208312571Y-139399761D02*
X208074476Y-140114047D01*
X208693523Y-140114047D01*
X210407809Y-140352142D02*
X210360190Y-140399761D01*
X210217333Y-140447380D01*
X210122095Y-140447380D01*
X209979238Y-140399761D01*
X209884000Y-140304523D01*
X209836380Y-140209285D01*
X209788761Y-140018809D01*
X209788761Y-139875952D01*
X209836380Y-139685476D01*
X209884000Y-139590238D01*
X209979238Y-139495000D01*
X210122095Y-139447380D01*
X210217333Y-139447380D01*
X210360190Y-139495000D01*
X210407809Y-139542619D01*
X210979238Y-140447380D02*
X210884000Y-140399761D01*
X210836380Y-140352142D01*
X210788761Y-140256904D01*
X210788761Y-139971190D01*
X210836380Y-139875952D01*
X210884000Y-139828333D01*
X210979238Y-139780714D01*
X211122095Y-139780714D01*
X211217333Y-139828333D01*
X211264952Y-139875952D01*
X211312571Y-139971190D01*
X211312571Y-140256904D01*
X211264952Y-140352142D01*
X211217333Y-140399761D01*
X211122095Y-140447380D01*
X210979238Y-140447380D01*
X211884000Y-140447380D02*
X211788761Y-140399761D01*
X211741142Y-140304523D01*
X211741142Y-139447380D01*
X212645904Y-140399761D02*
X212550666Y-140447380D01*
X212360190Y-140447380D01*
X212264952Y-140399761D01*
X212217333Y-140304523D01*
X212217333Y-139923571D01*
X212264952Y-139828333D01*
X212360190Y-139780714D01*
X212550666Y-139780714D01*
X212645904Y-139828333D01*
X212693523Y-139923571D01*
X212693523Y-140018809D01*
X212217333Y-140114047D01*
X213550666Y-140399761D02*
X213455428Y-140447380D01*
X213264952Y-140447380D01*
X213169714Y-140399761D01*
X213122095Y-140352142D01*
X213074476Y-140256904D01*
X213074476Y-139971190D01*
X213122095Y-139875952D01*
X213169714Y-139828333D01*
X213264952Y-139780714D01*
X213455428Y-139780714D01*
X213550666Y-139828333D01*
X214122095Y-140447380D02*
X214026857Y-140399761D01*
X213979238Y-140352142D01*
X213931619Y-140256904D01*
X213931619Y-139971190D01*
X213979238Y-139875952D01*
X214026857Y-139828333D01*
X214122095Y-139780714D01*
X214264952Y-139780714D01*
X214360190Y-139828333D01*
X214407809Y-139875952D01*
X214455428Y-139971190D01*
X214455428Y-140256904D01*
X214407809Y-140352142D01*
X214360190Y-140399761D01*
X214264952Y-140447380D01*
X214122095Y-140447380D01*
X214741142Y-139447380D02*
X215074476Y-140447380D01*
X215407809Y-139447380D01*
X215741142Y-140447380D02*
X215741142Y-139780714D01*
X215741142Y-139447380D02*
X215693523Y-139495000D01*
X215741142Y-139542619D01*
X215788761Y-139495000D01*
X215741142Y-139447380D01*
X215741142Y-139542619D01*
X216169714Y-140399761D02*
X216264952Y-140447380D01*
X216455428Y-140447380D01*
X216550666Y-140399761D01*
X216598285Y-140304523D01*
X216598285Y-140256904D01*
X216550666Y-140161666D01*
X216455428Y-140114047D01*
X216312571Y-140114047D01*
X216217333Y-140066428D01*
X216169714Y-139971190D01*
X216169714Y-139923571D01*
X216217333Y-139828333D01*
X216312571Y-139780714D01*
X216455428Y-139780714D01*
X216550666Y-139828333D01*
X217026857Y-140447380D02*
X217026857Y-139780714D01*
X217026857Y-139447380D02*
X216979238Y-139495000D01*
X217026857Y-139542619D01*
X217074476Y-139495000D01*
X217026857Y-139447380D01*
X217026857Y-139542619D01*
X217645904Y-140447380D02*
X217550666Y-140399761D01*
X217503047Y-140352142D01*
X217455428Y-140256904D01*
X217455428Y-139971190D01*
X217503047Y-139875952D01*
X217550666Y-139828333D01*
X217645904Y-139780714D01*
X217788761Y-139780714D01*
X217884000Y-139828333D01*
X217931619Y-139875952D01*
X217979238Y-139971190D01*
X217979238Y-140256904D01*
X217931619Y-140352142D01*
X217884000Y-140399761D01*
X217788761Y-140447380D01*
X217645904Y-140447380D01*
X218407809Y-139780714D02*
X218407809Y-140447380D01*
X218407809Y-139875952D02*
X218455428Y-139828333D01*
X218550666Y-139780714D01*
X218693523Y-139780714D01*
X218788761Y-139828333D01*
X218836380Y-139923571D01*
X218836380Y-140447380D01*
X220074476Y-140447380D02*
X220074476Y-139447380D01*
X220407809Y-140161666D01*
X220741142Y-139447380D01*
X220741142Y-140447380D01*
X221598285Y-140399761D02*
X221503047Y-140447380D01*
X221312571Y-140447380D01*
X221217333Y-140399761D01*
X221169714Y-140304523D01*
X221169714Y-139923571D01*
X221217333Y-139828333D01*
X221312571Y-139780714D01*
X221503047Y-139780714D01*
X221598285Y-139828333D01*
X221645904Y-139923571D01*
X221645904Y-140018809D01*
X221169714Y-140114047D01*
X222503047Y-139780714D02*
X222503047Y-140590238D01*
X222455428Y-140685476D01*
X222407809Y-140733095D01*
X222312571Y-140780714D01*
X222169714Y-140780714D01*
X222074476Y-140733095D01*
X222503047Y-140399761D02*
X222407809Y-140447380D01*
X222217333Y-140447380D01*
X222122095Y-140399761D01*
X222074476Y-140352142D01*
X222026857Y-140256904D01*
X222026857Y-139971190D01*
X222074476Y-139875952D01*
X222122095Y-139828333D01*
X222217333Y-139780714D01*
X222407809Y-139780714D01*
X222503047Y-139828333D01*
X223407809Y-140447380D02*
X223407809Y-139923571D01*
X223360190Y-139828333D01*
X223264952Y-139780714D01*
X223074476Y-139780714D01*
X222979238Y-139828333D01*
X223407809Y-140399761D02*
X223312571Y-140447380D01*
X223074476Y-140447380D01*
X222979238Y-140399761D01*
X222931619Y-140304523D01*
X222931619Y-140209285D01*
X222979238Y-140114047D01*
X223074476Y-140066428D01*
X223312571Y-140066428D01*
X223407809Y-140018809D01*
X224455428Y-140352142D02*
X224407809Y-140399761D01*
X224264952Y-140447380D01*
X224169714Y-140447380D01*
X224026857Y-140399761D01*
X223931619Y-140304523D01*
X223884000Y-140209285D01*
X223836380Y-140018809D01*
X223836380Y-139875952D01*
X223884000Y-139685476D01*
X223931619Y-139590238D01*
X224026857Y-139495000D01*
X224169714Y-139447380D01*
X224264952Y-139447380D01*
X224407809Y-139495000D01*
X224455428Y-139542619D01*
X225312571Y-140447380D02*
X225312571Y-139923571D01*
X225264952Y-139828333D01*
X225169714Y-139780714D01*
X224979238Y-139780714D01*
X224884000Y-139828333D01*
X225312571Y-140399761D02*
X225217333Y-140447380D01*
X224979238Y-140447380D01*
X224884000Y-140399761D01*
X224836380Y-140304523D01*
X224836380Y-140209285D01*
X224884000Y-140114047D01*
X224979238Y-140066428D01*
X225217333Y-140066428D01*
X225312571Y-140018809D01*
X225788761Y-140447380D02*
X225788761Y-139780714D01*
X225788761Y-139971190D02*
X225836380Y-139875952D01*
X225883999Y-139828333D01*
X225979238Y-139780714D01*
X226074476Y-139780714D01*
X226264952Y-139780714D02*
X226645904Y-139780714D01*
X226407809Y-139447380D02*
X226407809Y-140304523D01*
X226455428Y-140399761D01*
X226550666Y-140447380D01*
X226645904Y-140447380D01*
X205241142Y-141057380D02*
X205860190Y-141057380D01*
X205526857Y-141438333D01*
X205669714Y-141438333D01*
X205764952Y-141485952D01*
X205812571Y-141533571D01*
X205860190Y-141628809D01*
X205860190Y-141866904D01*
X205812571Y-141962142D01*
X205764952Y-142009761D01*
X205669714Y-142057380D01*
X205384000Y-142057380D01*
X205288761Y-142009761D01*
X205241142Y-141962142D01*
X206241142Y-141152619D02*
X206288761Y-141105000D01*
X206384000Y-141057380D01*
X206622095Y-141057380D01*
X206717333Y-141105000D01*
X206764952Y-141152619D01*
X206812571Y-141247857D01*
X206812571Y-141343095D01*
X206764952Y-141485952D01*
X206193523Y-142057380D01*
X206812571Y-142057380D01*
X207241142Y-142057380D02*
X207241142Y-141057380D01*
X207812571Y-142057380D02*
X207384000Y-141485952D01*
X207812571Y-141057380D02*
X207241142Y-141628809D01*
X208574476Y-141533571D02*
X208717333Y-141581190D01*
X208764952Y-141628809D01*
X208812571Y-141724047D01*
X208812571Y-141866904D01*
X208764952Y-141962142D01*
X208717333Y-142009761D01*
X208622095Y-142057380D01*
X208241142Y-142057380D01*
X208241142Y-141057380D01*
X208574476Y-141057380D01*
X208669714Y-141105000D01*
X208717333Y-141152619D01*
X208764952Y-141247857D01*
X208764952Y-141343095D01*
X208717333Y-141438333D01*
X208669714Y-141485952D01*
X208574476Y-141533571D01*
X208241142Y-141533571D01*
X209955428Y-141009761D02*
X209098285Y-142295476D01*
X210764952Y-141057380D02*
X210288761Y-141057380D01*
X210241142Y-141533571D01*
X210288761Y-141485952D01*
X210384000Y-141438333D01*
X210622095Y-141438333D01*
X210717333Y-141485952D01*
X210764952Y-141533571D01*
X210812571Y-141628809D01*
X210812571Y-141866904D01*
X210764952Y-141962142D01*
X210717333Y-142009761D01*
X210622095Y-142057380D01*
X210384000Y-142057380D01*
X210288761Y-142009761D01*
X210241142Y-141962142D01*
X211764952Y-142057380D02*
X211193523Y-142057380D01*
X211479238Y-142057380D02*
X211479238Y-141057380D01*
X211384000Y-141200238D01*
X211288761Y-141295476D01*
X211193523Y-141343095D01*
X212145904Y-141152619D02*
X212193523Y-141105000D01*
X212288761Y-141057380D01*
X212526857Y-141057380D01*
X212622095Y-141105000D01*
X212669714Y-141152619D01*
X212717333Y-141247857D01*
X212717333Y-141343095D01*
X212669714Y-141485952D01*
X212098285Y-142057380D01*
X212717333Y-142057380D01*
X213145904Y-142057380D02*
X213145904Y-141057380D01*
X213717333Y-142057380D02*
X213288761Y-141485952D01*
X213717333Y-141057380D02*
X213145904Y-141628809D01*
X214479238Y-141533571D02*
X214622095Y-141581190D01*
X214669714Y-141628809D01*
X214717333Y-141724047D01*
X214717333Y-141866904D01*
X214669714Y-141962142D01*
X214622095Y-142009761D01*
X214526857Y-142057380D01*
X214145904Y-142057380D01*
X214145904Y-141057380D01*
X214479238Y-141057380D01*
X214574476Y-141105000D01*
X214622095Y-141152619D01*
X214669714Y-141247857D01*
X214669714Y-141343095D01*
X214622095Y-141438333D01*
X214574476Y-141485952D01*
X214479238Y-141533571D01*
X214145904Y-141533571D01*
X216479238Y-142057380D02*
X216145904Y-141581190D01*
X215907809Y-142057380D02*
X215907809Y-141057380D01*
X216288761Y-141057380D01*
X216384000Y-141105000D01*
X216431619Y-141152619D01*
X216479238Y-141247857D01*
X216479238Y-141390714D01*
X216431619Y-141485952D01*
X216384000Y-141533571D01*
X216288761Y-141581190D01*
X215907809Y-141581190D01*
X216860190Y-141771666D02*
X217336380Y-141771666D01*
X216764952Y-142057380D02*
X217098285Y-141057380D01*
X217431619Y-142057380D01*
X217764952Y-142057380D02*
X217764952Y-141057380D01*
X218098285Y-141771666D01*
X218431619Y-141057380D01*
X218431619Y-142057380D01*
X219669714Y-142057380D02*
X219669714Y-141057380D01*
X220003047Y-141771666D01*
X220336380Y-141057380D01*
X220336380Y-142057380D01*
X220955428Y-142057380D02*
X220860190Y-142009761D01*
X220812571Y-141962142D01*
X220764952Y-141866904D01*
X220764952Y-141581190D01*
X220812571Y-141485952D01*
X220860190Y-141438333D01*
X220955428Y-141390714D01*
X221098285Y-141390714D01*
X221193523Y-141438333D01*
X221241142Y-141485952D01*
X221288761Y-141581190D01*
X221288761Y-141866904D01*
X221241142Y-141962142D01*
X221193523Y-142009761D01*
X221098285Y-142057380D01*
X220955428Y-142057380D01*
X222145904Y-142057380D02*
X222145904Y-141057380D01*
X222145904Y-142009761D02*
X222050666Y-142057380D01*
X221860190Y-142057380D01*
X221764952Y-142009761D01*
X221717333Y-141962142D01*
X221669714Y-141866904D01*
X221669714Y-141581190D01*
X221717333Y-141485952D01*
X221764952Y-141438333D01*
X221860190Y-141390714D01*
X222050666Y-141390714D01*
X222145904Y-141438333D01*
X223050666Y-141390714D02*
X223050666Y-142057380D01*
X222622095Y-141390714D02*
X222622095Y-141914523D01*
X222669714Y-142009761D01*
X222764952Y-142057380D01*
X222907809Y-142057380D01*
X223003047Y-142009761D01*
X223050666Y-141962142D01*
X223669714Y-142057380D02*
X223574476Y-142009761D01*
X223526857Y-141914523D01*
X223526857Y-141057380D01*
X224431619Y-142009761D02*
X224336380Y-142057380D01*
X224145904Y-142057380D01*
X224050666Y-142009761D01*
X224003047Y-141914523D01*
X224003047Y-141533571D01*
X224050666Y-141438333D01*
X224145904Y-141390714D01*
X224336380Y-141390714D01*
X224431619Y-141438333D01*
X224479238Y-141533571D01*
X224479238Y-141628809D01*
X224003047Y-141724047D01*
X208145904Y-143667380D02*
X208145904Y-142667380D01*
X208145904Y-143048333D02*
X208241142Y-143000714D01*
X208431619Y-143000714D01*
X208526857Y-143048333D01*
X208574476Y-143095952D01*
X208622095Y-143191190D01*
X208622095Y-143476904D01*
X208574476Y-143572142D01*
X208526857Y-143619761D01*
X208431619Y-143667380D01*
X208241142Y-143667380D01*
X208145904Y-143619761D01*
X208955428Y-143000714D02*
X209193523Y-143667380D01*
X209431619Y-143000714D02*
X209193523Y-143667380D01*
X209098285Y-143905476D01*
X209050666Y-143953095D01*
X208955428Y-144000714D01*
X210526857Y-143381666D02*
X211003047Y-143381666D01*
X210431619Y-143667380D02*
X210764952Y-142667380D01*
X211098285Y-143667380D01*
X211860190Y-143667380D02*
X211860190Y-143143571D01*
X211812571Y-143048333D01*
X211717333Y-143000714D01*
X211526857Y-143000714D01*
X211431619Y-143048333D01*
X211860190Y-143619761D02*
X211764952Y-143667380D01*
X211526857Y-143667380D01*
X211431619Y-143619761D01*
X211384000Y-143524523D01*
X211384000Y-143429285D01*
X211431619Y-143334047D01*
X211526857Y-143286428D01*
X211764952Y-143286428D01*
X211860190Y-143238809D01*
X212336380Y-143667380D02*
X212336380Y-143000714D01*
X212336380Y-143191190D02*
X212384000Y-143095952D01*
X212431619Y-143048333D01*
X212526857Y-143000714D01*
X212622095Y-143000714D01*
X213098285Y-143667380D02*
X213003047Y-143619761D01*
X212955428Y-143572142D01*
X212907809Y-143476904D01*
X212907809Y-143191190D01*
X212955428Y-143095952D01*
X213003047Y-143048333D01*
X213098285Y-143000714D01*
X213241142Y-143000714D01*
X213336380Y-143048333D01*
X213384000Y-143095952D01*
X213431619Y-143191190D01*
X213431619Y-143476904D01*
X213384000Y-143572142D01*
X213336380Y-143619761D01*
X213241142Y-143667380D01*
X213098285Y-143667380D01*
X213860190Y-143000714D02*
X213860190Y-143667380D01*
X213860190Y-143095952D02*
X213907809Y-143048333D01*
X214003047Y-143000714D01*
X214145904Y-143000714D01*
X214241142Y-143048333D01*
X214288761Y-143143571D01*
X214288761Y-143667380D01*
X215526857Y-143667380D02*
X215526857Y-142667380D01*
X215860190Y-143381666D01*
X216193523Y-142667380D01*
X216193523Y-143667380D01*
X217098285Y-143667380D02*
X217098285Y-143143571D01*
X217050666Y-143048333D01*
X216955428Y-143000714D01*
X216764952Y-143000714D01*
X216669714Y-143048333D01*
X217098285Y-143619761D02*
X217003047Y-143667380D01*
X216764952Y-143667380D01*
X216669714Y-143619761D01*
X216622095Y-143524523D01*
X216622095Y-143429285D01*
X216669714Y-143334047D01*
X216764952Y-143286428D01*
X217003047Y-143286428D01*
X217098285Y-143238809D01*
X217479238Y-143000714D02*
X217717333Y-143667380D01*
X217955428Y-143000714D01*
X218336380Y-143667380D02*
X218336380Y-143000714D01*
X218336380Y-143191190D02*
X218384000Y-143095952D01*
X218431619Y-143048333D01*
X218526857Y-143000714D01*
X218622095Y-143000714D01*
X218955428Y-143667380D02*
X218955428Y-143000714D01*
X218955428Y-142667380D02*
X218907809Y-142715000D01*
X218955428Y-142762619D01*
X219003047Y-142715000D01*
X218955428Y-142667380D01*
X218955428Y-142762619D01*
X219431619Y-143000714D02*
X219431619Y-143667380D01*
X219431619Y-143095952D02*
X219479238Y-143048333D01*
X219574476Y-143000714D01*
X219717333Y-143000714D01*
X219812571Y-143048333D01*
X219860190Y-143143571D01*
X219860190Y-143667380D01*
X220764952Y-143667380D02*
X220764952Y-143143571D01*
X220717333Y-143048333D01*
X220622095Y-143000714D01*
X220431619Y-143000714D01*
X220336380Y-143048333D01*
X220764952Y-143619761D02*
X220669714Y-143667380D01*
X220431619Y-143667380D01*
X220336380Y-143619761D01*
X220288761Y-143524523D01*
X220288761Y-143429285D01*
X220336380Y-143334047D01*
X220431619Y-143286428D01*
X220669714Y-143286428D01*
X220764952Y-143238809D01*
X221669714Y-143619761D02*
X221574476Y-143667380D01*
X221384000Y-143667380D01*
X221288761Y-143619761D01*
X221241142Y-143572142D01*
X221193523Y-143476904D01*
X221193523Y-143191190D01*
X221241142Y-143095952D01*
X221288761Y-143048333D01*
X221384000Y-143000714D01*
X221574476Y-143000714D01*
X221669714Y-143048333D01*
X245048095Y-110069380D02*
X245048095Y-110878904D01*
X245095714Y-110974142D01*
X245143333Y-111021761D01*
X245238571Y-111069380D01*
X245429047Y-111069380D01*
X245524285Y-111021761D01*
X245571904Y-110974142D01*
X245619523Y-110878904D01*
X245619523Y-110069380D01*
X246000476Y-110069380D02*
X246667142Y-110069380D01*
X246238571Y-111069380D01*
X237339142Y-122594666D02*
X237386761Y-122642285D01*
X237434380Y-122785142D01*
X237434380Y-122880380D01*
X237386761Y-123023238D01*
X237291523Y-123118476D01*
X237196285Y-123166095D01*
X237005809Y-123213714D01*
X236862952Y-123213714D01*
X236672476Y-123166095D01*
X236577238Y-123118476D01*
X236482000Y-123023238D01*
X236434380Y-122880380D01*
X236434380Y-122785142D01*
X236482000Y-122642285D01*
X236529619Y-122594666D01*
X236434380Y-122261333D02*
X236434380Y-121642285D01*
X236815333Y-121975619D01*
X236815333Y-121832761D01*
X236862952Y-121737523D01*
X236910571Y-121689904D01*
X237005809Y-121642285D01*
X237243904Y-121642285D01*
X237339142Y-121689904D01*
X237386761Y-121737523D01*
X237434380Y-121832761D01*
X237434380Y-122118476D01*
X237386761Y-122213714D01*
X237339142Y-122261333D01*
X155337142Y-136396666D02*
X155384761Y-136444285D01*
X155432380Y-136587142D01*
X155432380Y-136682380D01*
X155384761Y-136825238D01*
X155289523Y-136920476D01*
X155194285Y-136968095D01*
X155003809Y-137015714D01*
X154860952Y-137015714D01*
X154670476Y-136968095D01*
X154575238Y-136920476D01*
X154480000Y-136825238D01*
X154432380Y-136682380D01*
X154432380Y-136587142D01*
X154480000Y-136444285D01*
X154527619Y-136396666D01*
X154527619Y-136015714D02*
X154480000Y-135968095D01*
X154432380Y-135872857D01*
X154432380Y-135634761D01*
X154480000Y-135539523D01*
X154527619Y-135491904D01*
X154622857Y-135444285D01*
X154718095Y-135444285D01*
X154860952Y-135491904D01*
X155432380Y-136063333D01*
X155432380Y-135444285D01*
X233045095Y-110069380D02*
X233045095Y-110878904D01*
X233092714Y-110974142D01*
X233140333Y-111021761D01*
X233235571Y-111069380D01*
X233426047Y-111069380D01*
X233521285Y-111021761D01*
X233568904Y-110974142D01*
X233616523Y-110878904D01*
X233616523Y-110069380D01*
X233997476Y-110069380D02*
X234616523Y-110069380D01*
X234283190Y-110450333D01*
X234426047Y-110450333D01*
X234521285Y-110497952D01*
X234568904Y-110545571D01*
X234616523Y-110640809D01*
X234616523Y-110878904D01*
X234568904Y-110974142D01*
X234521285Y-111021761D01*
X234426047Y-111069380D01*
X234140333Y-111069380D01*
X234045095Y-111021761D01*
X233997476Y-110974142D01*
X248753333Y-125285142D02*
X248705714Y-125332761D01*
X248562857Y-125380380D01*
X248467619Y-125380380D01*
X248324761Y-125332761D01*
X248229523Y-125237523D01*
X248181904Y-125142285D01*
X248134285Y-124951809D01*
X248134285Y-124808952D01*
X248181904Y-124618476D01*
X248229523Y-124523238D01*
X248324761Y-124428000D01*
X248467619Y-124380380D01*
X248562857Y-124380380D01*
X248705714Y-124428000D01*
X248753333Y-124475619D01*
X249086666Y-124380380D02*
X249753333Y-124380380D01*
X249324761Y-125380380D01*
X172571904Y-90003380D02*
X172571904Y-90812904D01*
X172619523Y-90908142D01*
X172667142Y-90955761D01*
X172762380Y-91003380D01*
X172952857Y-91003380D01*
X173048095Y-90955761D01*
X173095714Y-90908142D01*
X173143333Y-90812904D01*
X173143333Y-90003380D01*
X174143333Y-91003380D02*
X173571904Y-91003380D01*
X173857619Y-91003380D02*
X173857619Y-90003380D01*
X173762380Y-90146238D01*
X173667142Y-90241476D01*
X173571904Y-90289095D01*
X174762380Y-90003380D02*
X174857619Y-90003380D01*
X174952857Y-90051000D01*
X175000476Y-90098619D01*
X175048095Y-90193857D01*
X175095714Y-90384333D01*
X175095714Y-90622428D01*
X175048095Y-90812904D01*
X175000476Y-90908142D01*
X174952857Y-90955761D01*
X174857619Y-91003380D01*
X174762380Y-91003380D01*
X174667142Y-90955761D01*
X174619523Y-90908142D01*
X174571904Y-90812904D01*
X174524285Y-90622428D01*
X174524285Y-90384333D01*
X174571904Y-90193857D01*
X174619523Y-90098619D01*
X174667142Y-90051000D01*
X174762380Y-90003380D01*
X155337142Y-113536666D02*
X155384761Y-113584285D01*
X155432380Y-113727142D01*
X155432380Y-113822380D01*
X155384761Y-113965238D01*
X155289523Y-114060476D01*
X155194285Y-114108095D01*
X155003809Y-114155714D01*
X154860952Y-114155714D01*
X154670476Y-114108095D01*
X154575238Y-114060476D01*
X154480000Y-113965238D01*
X154432380Y-113822380D01*
X154432380Y-113727142D01*
X154480000Y-113584285D01*
X154527619Y-113536666D01*
X155432380Y-112584285D02*
X155432380Y-113155714D01*
X155432380Y-112870000D02*
X154432380Y-112870000D01*
X154575238Y-112965238D01*
X154670476Y-113060476D01*
X154718095Y-113155714D01*
X248571666Y-126169380D02*
X248571666Y-126883666D01*
X248524047Y-127026523D01*
X248428809Y-127121761D01*
X248285952Y-127169380D01*
X248190714Y-127169380D01*
X249571666Y-127169380D02*
X249000238Y-127169380D01*
X249285952Y-127169380D02*
X249285952Y-126169380D01*
X249190714Y-126312238D01*
X249095476Y-126407476D01*
X249000238Y-126455095D01*
X219035333Y-125285142D02*
X218987714Y-125332761D01*
X218844857Y-125380380D01*
X218749619Y-125380380D01*
X218606761Y-125332761D01*
X218511523Y-125237523D01*
X218463904Y-125142285D01*
X218416285Y-124951809D01*
X218416285Y-124808952D01*
X218463904Y-124618476D01*
X218511523Y-124523238D01*
X218606761Y-124428000D01*
X218749619Y-124380380D01*
X218844857Y-124380380D01*
X218987714Y-124428000D01*
X219035333Y-124475619D01*
X219511523Y-125380380D02*
X219702000Y-125380380D01*
X219797238Y-125332761D01*
X219844857Y-125285142D01*
X219940095Y-125142285D01*
X219987714Y-124951809D01*
X219987714Y-124570857D01*
X219940095Y-124475619D01*
X219892476Y-124428000D01*
X219797238Y-124380380D01*
X219606761Y-124380380D01*
X219511523Y-124428000D01*
X219463904Y-124475619D01*
X219416285Y-124570857D01*
X219416285Y-124808952D01*
X219463904Y-124904190D01*
X219511523Y-124951809D01*
X219606761Y-124999428D01*
X219797238Y-124999428D01*
X219892476Y-124951809D01*
X219940095Y-124904190D01*
X219987714Y-124808952D01*
X179792380Y-114116904D02*
X180601904Y-114116904D01*
X180697142Y-114069285D01*
X180744761Y-114021666D01*
X180792380Y-113926428D01*
X180792380Y-113735952D01*
X180744761Y-113640714D01*
X180697142Y-113593095D01*
X180601904Y-113545476D01*
X179792380Y-113545476D01*
X180792380Y-112545476D02*
X180792380Y-113116904D01*
X180792380Y-112831190D02*
X179792380Y-112831190D01*
X179935238Y-112926428D01*
X180030476Y-113021666D01*
X180078095Y-113116904D01*
X245110095Y-90130380D02*
X245110095Y-90939904D01*
X245157714Y-91035142D01*
X245205333Y-91082761D01*
X245300571Y-91130380D01*
X245491047Y-91130380D01*
X245586285Y-91082761D01*
X245633904Y-91035142D01*
X245681523Y-90939904D01*
X245681523Y-90130380D01*
X246586285Y-90130380D02*
X246395809Y-90130380D01*
X246300571Y-90178000D01*
X246252952Y-90225619D01*
X246157714Y-90368476D01*
X246110095Y-90558952D01*
X246110095Y-90939904D01*
X246157714Y-91035142D01*
X246205333Y-91082761D01*
X246300571Y-91130380D01*
X246491047Y-91130380D01*
X246586285Y-91082761D01*
X246633904Y-91035142D01*
X246681523Y-90939904D01*
X246681523Y-90701809D01*
X246633904Y-90606571D01*
X246586285Y-90558952D01*
X246491047Y-90511333D01*
X246300571Y-90511333D01*
X246205333Y-90558952D01*
X246157714Y-90606571D01*
X246110095Y-90701809D01*
X237521904Y-134834380D02*
X237521904Y-135643904D01*
X237569523Y-135739142D01*
X237617142Y-135786761D01*
X237712380Y-135834380D01*
X237902857Y-135834380D01*
X237998095Y-135786761D01*
X238045714Y-135739142D01*
X238093333Y-135643904D01*
X238093333Y-134834380D01*
X239093333Y-135834380D02*
X238521904Y-135834380D01*
X238807619Y-135834380D02*
X238807619Y-134834380D01*
X238712380Y-134977238D01*
X238617142Y-135072476D01*
X238521904Y-135120095D01*
X239474285Y-134929619D02*
X239521904Y-134882000D01*
X239617142Y-134834380D01*
X239855238Y-134834380D01*
X239950476Y-134882000D01*
X239998095Y-134929619D01*
X240045714Y-135024857D01*
X240045714Y-135120095D01*
X239998095Y-135262952D01*
X239426666Y-135834380D01*
X240045714Y-135834380D01*
X185039095Y-90130380D02*
X185039095Y-90939904D01*
X185086714Y-91035142D01*
X185134333Y-91082761D01*
X185229571Y-91130380D01*
X185420047Y-91130380D01*
X185515285Y-91082761D01*
X185562904Y-91035142D01*
X185610523Y-90939904D01*
X185610523Y-90130380D01*
X186515285Y-90463714D02*
X186515285Y-91130380D01*
X186277190Y-90082761D02*
X186039095Y-90797047D01*
X186658142Y-90797047D01*
X221107095Y-110069380D02*
X221107095Y-110878904D01*
X221154714Y-110974142D01*
X221202333Y-111021761D01*
X221297571Y-111069380D01*
X221488047Y-111069380D01*
X221583285Y-111021761D01*
X221630904Y-110974142D01*
X221678523Y-110878904D01*
X221678523Y-110069380D01*
X222202333Y-111069380D02*
X222392809Y-111069380D01*
X222488047Y-111021761D01*
X222535666Y-110974142D01*
X222630904Y-110831285D01*
X222678523Y-110640809D01*
X222678523Y-110259857D01*
X222630904Y-110164619D01*
X222583285Y-110117000D01*
X222488047Y-110069380D01*
X222297571Y-110069380D01*
X222202333Y-110117000D01*
X222154714Y-110164619D01*
X222107095Y-110259857D01*
X222107095Y-110497952D01*
X222154714Y-110593190D01*
X222202333Y-110640809D01*
X222297571Y-110688428D01*
X222488047Y-110688428D01*
X222583285Y-110640809D01*
X222630904Y-110593190D01*
X222678523Y-110497952D01*
X229084142Y-143644857D02*
X229131761Y-143692476D01*
X229179380Y-143835333D01*
X229179380Y-143930571D01*
X229131761Y-144073428D01*
X229036523Y-144168666D01*
X228941285Y-144216285D01*
X228750809Y-144263904D01*
X228607952Y-144263904D01*
X228417476Y-144216285D01*
X228322238Y-144168666D01*
X228227000Y-144073428D01*
X228179380Y-143930571D01*
X228179380Y-143835333D01*
X228227000Y-143692476D01*
X228274619Y-143644857D01*
X229179380Y-142692476D02*
X229179380Y-143263904D01*
X229179380Y-142978190D02*
X228179380Y-142978190D01*
X228322238Y-143073428D01*
X228417476Y-143168666D01*
X228465095Y-143263904D01*
X228274619Y-142311523D02*
X228227000Y-142263904D01*
X228179380Y-142168666D01*
X228179380Y-141930571D01*
X228227000Y-141835333D01*
X228274619Y-141787714D01*
X228369857Y-141740095D01*
X228465095Y-141740095D01*
X228607952Y-141787714D01*
X229179380Y-142359142D01*
X229179380Y-141740095D01*
X229481142Y-88241142D02*
X229433523Y-88288761D01*
X229290666Y-88336380D01*
X229195428Y-88336380D01*
X229052571Y-88288761D01*
X228957333Y-88193523D01*
X228909714Y-88098285D01*
X228862095Y-87907809D01*
X228862095Y-87764952D01*
X228909714Y-87574476D01*
X228957333Y-87479238D01*
X229052571Y-87384000D01*
X229195428Y-87336380D01*
X229290666Y-87336380D01*
X229433523Y-87384000D01*
X229481142Y-87431619D01*
X230433523Y-88336380D02*
X229862095Y-88336380D01*
X230147809Y-88336380D02*
X230147809Y-87336380D01*
X230052571Y-87479238D01*
X229957333Y-87574476D01*
X229862095Y-87622095D01*
X231385904Y-88336380D02*
X230814476Y-88336380D01*
X231100190Y-88336380D02*
X231100190Y-87336380D01*
X231004952Y-87479238D01*
X230909714Y-87574476D01*
X230814476Y-87622095D01*
X237831333Y-93575142D02*
X237783714Y-93622761D01*
X237640857Y-93670380D01*
X237545619Y-93670380D01*
X237402761Y-93622761D01*
X237307523Y-93527523D01*
X237259904Y-93432285D01*
X237212285Y-93241809D01*
X237212285Y-93098952D01*
X237259904Y-92908476D01*
X237307523Y-92813238D01*
X237402761Y-92718000D01*
X237545619Y-92670380D01*
X237640857Y-92670380D01*
X237783714Y-92718000D01*
X237831333Y-92765619D01*
X238688476Y-92670380D02*
X238498000Y-92670380D01*
X238402761Y-92718000D01*
X238355142Y-92765619D01*
X238259904Y-92908476D01*
X238212285Y-93098952D01*
X238212285Y-93479904D01*
X238259904Y-93575142D01*
X238307523Y-93622761D01*
X238402761Y-93670380D01*
X238593238Y-93670380D01*
X238688476Y-93622761D01*
X238736095Y-93575142D01*
X238783714Y-93479904D01*
X238783714Y-93241809D01*
X238736095Y-93146571D01*
X238688476Y-93098952D01*
X238593238Y-93051333D01*
X238402761Y-93051333D01*
X238307523Y-93098952D01*
X238259904Y-93146571D01*
X238212285Y-93241809D01*
X207771904Y-116800380D02*
X207771904Y-117609904D01*
X207819523Y-117705142D01*
X207867142Y-117752761D01*
X207962380Y-117800380D01*
X208152857Y-117800380D01*
X208248095Y-117752761D01*
X208295714Y-117705142D01*
X208343333Y-117609904D01*
X208343333Y-116800380D01*
X209343333Y-117800380D02*
X208771904Y-117800380D01*
X209057619Y-117800380D02*
X209057619Y-116800380D01*
X208962380Y-116943238D01*
X208867142Y-117038476D01*
X208771904Y-117086095D01*
X209676666Y-116800380D02*
X210295714Y-116800380D01*
X209962380Y-117181333D01*
X210105238Y-117181333D01*
X210200476Y-117228952D01*
X210248095Y-117276571D01*
X210295714Y-117371809D01*
X210295714Y-117609904D01*
X210248095Y-117705142D01*
X210200476Y-117752761D01*
X210105238Y-117800380D01*
X209819523Y-117800380D01*
X209724285Y-117752761D01*
X209676666Y-117705142D01*
X220571904Y-90130380D02*
X220571904Y-90939904D01*
X220619523Y-91035142D01*
X220667142Y-91082761D01*
X220762380Y-91130380D01*
X220952857Y-91130380D01*
X221048095Y-91082761D01*
X221095714Y-91035142D01*
X221143333Y-90939904D01*
X221143333Y-90130380D01*
X222143333Y-91130380D02*
X221571904Y-91130380D01*
X221857619Y-91130380D02*
X221857619Y-90130380D01*
X221762380Y-90273238D01*
X221667142Y-90368476D01*
X221571904Y-90416095D01*
X223095714Y-91130380D02*
X222524285Y-91130380D01*
X222810000Y-91130380D02*
X222810000Y-90130380D01*
X222714761Y-90273238D01*
X222619523Y-90368476D01*
X222524285Y-90416095D01*
X234402333Y-88241142D02*
X234354714Y-88288761D01*
X234211857Y-88336380D01*
X234116619Y-88336380D01*
X233973761Y-88288761D01*
X233878523Y-88193523D01*
X233830904Y-88098285D01*
X233783285Y-87907809D01*
X233783285Y-87764952D01*
X233830904Y-87574476D01*
X233878523Y-87479238D01*
X233973761Y-87384000D01*
X234116619Y-87336380D01*
X234211857Y-87336380D01*
X234354714Y-87384000D01*
X234402333Y-87431619D01*
X235307095Y-87336380D02*
X234830904Y-87336380D01*
X234783285Y-87812571D01*
X234830904Y-87764952D01*
X234926142Y-87717333D01*
X235164238Y-87717333D01*
X235259476Y-87764952D01*
X235307095Y-87812571D01*
X235354714Y-87907809D01*
X235354714Y-88145904D01*
X235307095Y-88241142D01*
X235259476Y-88288761D01*
X235164238Y-88336380D01*
X234926142Y-88336380D01*
X234830904Y-88288761D01*
X234783285Y-88241142D01*
X197048095Y-90130380D02*
X197048095Y-90939904D01*
X197095714Y-91035142D01*
X197143333Y-91082761D01*
X197238571Y-91130380D01*
X197429047Y-91130380D01*
X197524285Y-91082761D01*
X197571904Y-91035142D01*
X197619523Y-90939904D01*
X197619523Y-90130380D01*
X198238571Y-90558952D02*
X198143333Y-90511333D01*
X198095714Y-90463714D01*
X198048095Y-90368476D01*
X198048095Y-90320857D01*
X198095714Y-90225619D01*
X198143333Y-90178000D01*
X198238571Y-90130380D01*
X198429047Y-90130380D01*
X198524285Y-90178000D01*
X198571904Y-90225619D01*
X198619523Y-90320857D01*
X198619523Y-90368476D01*
X198571904Y-90463714D01*
X198524285Y-90511333D01*
X198429047Y-90558952D01*
X198238571Y-90558952D01*
X198143333Y-90606571D01*
X198095714Y-90654190D01*
X198048095Y-90749428D01*
X198048095Y-90939904D01*
X198095714Y-91035142D01*
X198143333Y-91082761D01*
X198238571Y-91130380D01*
X198429047Y-91130380D01*
X198524285Y-91082761D01*
X198571904Y-91035142D01*
X198619523Y-90939904D01*
X198619523Y-90749428D01*
X198571904Y-90654190D01*
X198524285Y-90606571D01*
X198429047Y-90558952D01*
X163298142Y-101766666D02*
X163345761Y-101814285D01*
X163393380Y-101957142D01*
X163393380Y-102052380D01*
X163345761Y-102195238D01*
X163250523Y-102290476D01*
X163155285Y-102338095D01*
X162964809Y-102385714D01*
X162821952Y-102385714D01*
X162631476Y-102338095D01*
X162536238Y-102290476D01*
X162441000Y-102195238D01*
X162393380Y-102052380D01*
X162393380Y-101957142D01*
X162441000Y-101814285D01*
X162488619Y-101766666D01*
X162821952Y-101195238D02*
X162774333Y-101290476D01*
X162726714Y-101338095D01*
X162631476Y-101385714D01*
X162583857Y-101385714D01*
X162488619Y-101338095D01*
X162441000Y-101290476D01*
X162393380Y-101195238D01*
X162393380Y-101004761D01*
X162441000Y-100909523D01*
X162488619Y-100861904D01*
X162583857Y-100814285D01*
X162631476Y-100814285D01*
X162726714Y-100861904D01*
X162774333Y-100909523D01*
X162821952Y-101004761D01*
X162821952Y-101195238D01*
X162869571Y-101290476D01*
X162917190Y-101338095D01*
X163012428Y-101385714D01*
X163202904Y-101385714D01*
X163298142Y-101338095D01*
X163345761Y-101290476D01*
X163393380Y-101195238D01*
X163393380Y-101004761D01*
X163345761Y-100909523D01*
X163298142Y-100861904D01*
X163202904Y-100814285D01*
X163012428Y-100814285D01*
X162917190Y-100861904D01*
X162869571Y-100909523D01*
X162821952Y-101004761D01*
X161647142Y-92209857D02*
X161694761Y-92257476D01*
X161742380Y-92400333D01*
X161742380Y-92495571D01*
X161694761Y-92638428D01*
X161599523Y-92733666D01*
X161504285Y-92781285D01*
X161313809Y-92828904D01*
X161170952Y-92828904D01*
X160980476Y-92781285D01*
X160885238Y-92733666D01*
X160790000Y-92638428D01*
X160742380Y-92495571D01*
X160742380Y-92400333D01*
X160790000Y-92257476D01*
X160837619Y-92209857D01*
X161742380Y-91257476D02*
X161742380Y-91828904D01*
X161742380Y-91543190D02*
X160742380Y-91543190D01*
X160885238Y-91638428D01*
X160980476Y-91733666D01*
X161028095Y-91828904D01*
X160742380Y-90638428D02*
X160742380Y-90543190D01*
X160790000Y-90447952D01*
X160837619Y-90400333D01*
X160932857Y-90352714D01*
X161123333Y-90305095D01*
X161361428Y-90305095D01*
X161551904Y-90352714D01*
X161647142Y-90400333D01*
X161694761Y-90447952D01*
X161742380Y-90543190D01*
X161742380Y-90638428D01*
X161694761Y-90733666D01*
X161647142Y-90781285D01*
X161551904Y-90828904D01*
X161361428Y-90876523D01*
X161123333Y-90876523D01*
X160932857Y-90828904D01*
X160837619Y-90781285D01*
X160790000Y-90733666D01*
X160742380Y-90638428D01*
X209042095Y-90257380D02*
X209042095Y-91066904D01*
X209089714Y-91162142D01*
X209137333Y-91209761D01*
X209232571Y-91257380D01*
X209423047Y-91257380D01*
X209518285Y-91209761D01*
X209565904Y-91162142D01*
X209613523Y-91066904D01*
X209613523Y-90257380D01*
X210565904Y-90257380D02*
X210089714Y-90257380D01*
X210042095Y-90733571D01*
X210089714Y-90685952D01*
X210184952Y-90638333D01*
X210423047Y-90638333D01*
X210518285Y-90685952D01*
X210565904Y-90733571D01*
X210613523Y-90828809D01*
X210613523Y-91066904D01*
X210565904Y-91162142D01*
X210518285Y-91209761D01*
X210423047Y-91257380D01*
X210184952Y-91257380D01*
X210089714Y-91209761D01*
X210042095Y-91162142D01*
X208399142Y-135612142D02*
X208351523Y-135659761D01*
X208208666Y-135707380D01*
X208113428Y-135707380D01*
X207970571Y-135659761D01*
X207875333Y-135564523D01*
X207827714Y-135469285D01*
X207780095Y-135278809D01*
X207780095Y-135135952D01*
X207827714Y-134945476D01*
X207875333Y-134850238D01*
X207970571Y-134755000D01*
X208113428Y-134707380D01*
X208208666Y-134707380D01*
X208351523Y-134755000D01*
X208399142Y-134802619D01*
X209351523Y-135707380D02*
X208780095Y-135707380D01*
X209065809Y-135707380D02*
X209065809Y-134707380D01*
X208970571Y-134850238D01*
X208875333Y-134945476D01*
X208780095Y-134993095D01*
X209684857Y-134707380D02*
X210303904Y-134707380D01*
X209970571Y-135088333D01*
X210113428Y-135088333D01*
X210208666Y-135135952D01*
X210256285Y-135183571D01*
X210303904Y-135278809D01*
X210303904Y-135516904D01*
X210256285Y-135612142D01*
X210208666Y-135659761D01*
X210113428Y-135707380D01*
X209827714Y-135707380D01*
X209732476Y-135659761D01*
X209684857Y-135612142D01*
X177252380Y-136976904D02*
X178061904Y-136976904D01*
X178157142Y-136929285D01*
X178204761Y-136881666D01*
X178252380Y-136786428D01*
X178252380Y-136595952D01*
X178204761Y-136500714D01*
X178157142Y-136453095D01*
X178061904Y-136405476D01*
X177252380Y-136405476D01*
X177347619Y-135976904D02*
X177300000Y-135929285D01*
X177252380Y-135834047D01*
X177252380Y-135595952D01*
X177300000Y-135500714D01*
X177347619Y-135453095D01*
X177442857Y-135405476D01*
X177538095Y-135405476D01*
X177680952Y-135453095D01*
X178252380Y-136024523D01*
X178252380Y-135405476D01*
X163298142Y-97448666D02*
X163345761Y-97496285D01*
X163393380Y-97639142D01*
X163393380Y-97734380D01*
X163345761Y-97877238D01*
X163250523Y-97972476D01*
X163155285Y-98020095D01*
X162964809Y-98067714D01*
X162821952Y-98067714D01*
X162631476Y-98020095D01*
X162536238Y-97972476D01*
X162441000Y-97877238D01*
X162393380Y-97734380D01*
X162393380Y-97639142D01*
X162441000Y-97496285D01*
X162488619Y-97448666D01*
X162726714Y-96591523D02*
X163393380Y-96591523D01*
X162345761Y-96829619D02*
X163060047Y-97067714D01*
X163060047Y-96448666D01*
D12*
X156972000Y-152942600D02*
X253552000Y-152942600D01*
X154372000Y-152942600D02*
X154372000Y-151612600D01*
X156972000Y-152942600D02*
X156972000Y-150282600D01*
X155702000Y-152942600D02*
X154372000Y-152942600D01*
X156972000Y-150282600D02*
X253552000Y-150282600D01*
X253552000Y-152942600D02*
X253552000Y-150282600D01*
X197612000Y-150402600D02*
X220532000Y-150402600D01*
X196342000Y-150402600D02*
X195012000Y-150402600D01*
X197612000Y-147742600D02*
X220532000Y-147742600D01*
X197612000Y-150402600D02*
X197612000Y-147742600D01*
X195012000Y-150402600D02*
X195012000Y-149072600D01*
X220532000Y-150402600D02*
X220532000Y-147742600D01*
X244810000Y-101670000D02*
X243160000Y-101670000D01*
X248460000Y-101670000D02*
X246810000Y-101670000D01*
X248460000Y-119570000D02*
X248460000Y-101670000D01*
X243160000Y-101670000D02*
X243160000Y-119570000D01*
X243160000Y-119570000D02*
X248460000Y-119570000D01*
X244810000Y-101670000D02*
G75*
G03*
X246810000Y-101670000I1000000J0D01*
G01*
X235538000Y-121058000D02*
X235538000Y-123798000D01*
X230298000Y-121058000D02*
X230298000Y-123798000D01*
X230298000Y-121058000D02*
X235538000Y-121058000D01*
X230298000Y-123798000D02*
X235538000Y-123798000D01*
X156110000Y-133610000D02*
X158850000Y-133610000D01*
X156110000Y-138850000D02*
X158850000Y-138850000D01*
X158850000Y-138850000D02*
X158850000Y-133610000D01*
X156110000Y-138850000D02*
X156110000Y-133610000D01*
X231160000Y-101670000D02*
X231160000Y-119570000D01*
X232810000Y-101670000D02*
X231160000Y-101670000D01*
X236460000Y-101670000D02*
X234810000Y-101670000D01*
X236460000Y-119570000D02*
X236460000Y-101670000D01*
X231160000Y-119570000D02*
X236460000Y-119570000D01*
X232810000Y-101670000D02*
G75*
G03*
X234810000Y-101670000I1000000J0D01*
G01*
X251540000Y-121058000D02*
X246300000Y-121058000D01*
X251540000Y-123798000D02*
X246300000Y-123798000D01*
X251540000Y-123798000D02*
X251540000Y-121058000D01*
X246300000Y-123798000D02*
X246300000Y-121058000D01*
X171160000Y-99570000D02*
X176460000Y-99570000D01*
X176460000Y-81670000D02*
X174810000Y-81670000D01*
X172810000Y-81670000D02*
X171160000Y-81670000D01*
X176460000Y-99570000D02*
X176460000Y-81670000D01*
X171160000Y-81670000D02*
X171160000Y-99570000D01*
X172810000Y-81670000D02*
G75*
G03*
X174810000Y-81670000I1000000J0D01*
G01*
X158850000Y-115990000D02*
X158850000Y-110750000D01*
X156110000Y-115990000D02*
X158850000Y-115990000D01*
X156110000Y-115990000D02*
X156110000Y-110750000D01*
X156110000Y-110750000D02*
X158850000Y-110750000D01*
X246305000Y-148157000D02*
X251505000Y-148157000D01*
X251505000Y-127717000D02*
X251505000Y-148157000D01*
X246305000Y-129047000D02*
X246305000Y-127717000D01*
X246305000Y-127717000D02*
X247635000Y-127717000D01*
X246305000Y-130317000D02*
X246305000Y-148157000D01*
X248905000Y-127717000D02*
X251505000Y-127717000D01*
X248905000Y-130317000D02*
X248905000Y-127717000D01*
X246305000Y-130317000D02*
X248905000Y-130317000D01*
X221822000Y-123798000D02*
X221822000Y-121058000D01*
X216582000Y-123798000D02*
X216582000Y-121058000D01*
X221822000Y-123798000D02*
X216582000Y-123798000D01*
X221822000Y-121058000D02*
X216582000Y-121058000D01*
X159950000Y-119815000D02*
X200710000Y-119815000D01*
X200710000Y-106895000D02*
X159950000Y-106895000D01*
X159950000Y-114355000D02*
X159950000Y-119815000D01*
X200710000Y-119815000D02*
X200710000Y-106895000D01*
X159950000Y-106895000D02*
X159950000Y-112355000D01*
X159950000Y-114355000D02*
G75*
G03*
X159950000Y-112355000I0J1000000D01*
G01*
X243160000Y-81670000D02*
X243160000Y-99570000D01*
X244810000Y-81670000D02*
X243160000Y-81670000D01*
X248460000Y-81670000D02*
X246810000Y-81670000D01*
X248460000Y-99570000D02*
X248460000Y-81670000D01*
X243160000Y-99570000D02*
X248460000Y-99570000D01*
X244810000Y-81670000D02*
G75*
G03*
X246810000Y-81670000I1000000J0D01*
G01*
X236110000Y-125162000D02*
X236110000Y-145602000D01*
X241410000Y-125162000D02*
X239760000Y-125162000D01*
X241410000Y-145602000D02*
X241410000Y-125162000D01*
X236110000Y-145602000D02*
X241410000Y-145602000D01*
X237760000Y-125162000D02*
X236110000Y-125162000D01*
X237760000Y-125162000D02*
G75*
G03*
X239760000Y-125162000I1000000J0D01*
G01*
X183160000Y-81670000D02*
X183160000Y-99570000D01*
X184810000Y-81670000D02*
X183160000Y-81670000D01*
X188460000Y-81670000D02*
X186810000Y-81670000D01*
X188460000Y-99570000D02*
X188460000Y-81670000D01*
X183160000Y-99570000D02*
X188460000Y-99570000D01*
X184810000Y-81670000D02*
G75*
G03*
X186810000Y-81670000I1000000J0D01*
G01*
X219160000Y-101670000D02*
X219160000Y-119570000D01*
X220810000Y-101670000D02*
X219160000Y-101670000D01*
X219160000Y-119570000D02*
X224460000Y-119570000D01*
X224460000Y-119570000D02*
X224460000Y-101670000D01*
X224460000Y-101670000D02*
X222810000Y-101670000D01*
X220810000Y-101670000D02*
G75*
G03*
X222810000Y-101670000I1000000J0D01*
G01*
X232500000Y-145622000D02*
X229760000Y-145622000D01*
X232500000Y-140382000D02*
X232500000Y-145622000D01*
X229760000Y-140382000D02*
X229760000Y-145622000D01*
X232500000Y-140382000D02*
X229760000Y-140382000D01*
X231494000Y-81454000D02*
X231494000Y-86694000D01*
X231494000Y-81454000D02*
X228754000Y-81454000D01*
X231494000Y-86694000D02*
X228754000Y-86694000D01*
X228754000Y-81454000D02*
X228754000Y-86694000D01*
X239368000Y-94408000D02*
X236628000Y-94408000D01*
X239368000Y-99648000D02*
X236628000Y-99648000D01*
X239368000Y-94408000D02*
X239368000Y-99648000D01*
X236628000Y-94408000D02*
X236628000Y-99648000D01*
X206360000Y-104588000D02*
X206360000Y-130108000D01*
X211660000Y-130108000D02*
X211660000Y-104588000D01*
X211660000Y-104588000D02*
X210010000Y-104588000D01*
X206360000Y-130108000D02*
X211660000Y-130108000D01*
X208010000Y-104588000D02*
X206360000Y-104588000D01*
X208010000Y-104588000D02*
G75*
G03*
X210010000Y-104588000I1000000J0D01*
G01*
X224460000Y-81670000D02*
X222810000Y-81670000D01*
X224460000Y-99570000D02*
X224460000Y-81670000D01*
X219160000Y-81670000D02*
X219160000Y-99570000D01*
X219160000Y-99570000D02*
X224460000Y-99570000D01*
X220810000Y-81670000D02*
X219160000Y-81670000D01*
X220810000Y-81670000D02*
G75*
G03*
X222810000Y-81670000I1000000J0D01*
G01*
X235939000Y-81454000D02*
X233199000Y-81454000D01*
X235939000Y-81454000D02*
X235939000Y-86694000D01*
X233199000Y-81454000D02*
X233199000Y-86694000D01*
X235939000Y-86694000D02*
X233199000Y-86694000D01*
X200460000Y-81670000D02*
X198810000Y-81670000D01*
X200460000Y-99570000D02*
X200460000Y-81670000D01*
X195160000Y-81670000D02*
X195160000Y-99570000D01*
X196810000Y-81670000D02*
X195160000Y-81670000D01*
X195160000Y-99570000D02*
X200460000Y-99570000D01*
X196810000Y-81670000D02*
G75*
G03*
X198810000Y-81670000I1000000J0D01*
G01*
X156364000Y-100357000D02*
X161604000Y-100357000D01*
X161604000Y-100357000D02*
X161604000Y-103097000D01*
X156364000Y-100357000D02*
X156364000Y-103097000D01*
X156364000Y-103097000D02*
X161604000Y-103097000D01*
X165200000Y-94040000D02*
X162460000Y-94040000D01*
X165200000Y-88800000D02*
X162460000Y-88800000D01*
X162460000Y-88800000D02*
X162460000Y-94040000D01*
X165200000Y-88800000D02*
X165200000Y-94040000D01*
X212460000Y-81670000D02*
X210810000Y-81670000D01*
X212460000Y-99570000D02*
X212460000Y-81670000D01*
X208810000Y-81670000D02*
X207160000Y-81670000D01*
X207160000Y-99570000D02*
X212460000Y-99570000D01*
X207160000Y-81670000D02*
X207160000Y-99570000D01*
X208810000Y-81670000D02*
G75*
G03*
X210810000Y-81670000I1000000J0D01*
G01*
X211662000Y-131472000D02*
X211662000Y-134212000D01*
X206422000Y-131472000D02*
X206422000Y-134212000D01*
X206422000Y-131472000D02*
X211662000Y-131472000D01*
X206422000Y-134212000D02*
X211662000Y-134212000D01*
X159960000Y-137215000D02*
X159960000Y-142675000D01*
X195640000Y-142675000D02*
X195640000Y-129755000D01*
X195640000Y-129755000D02*
X159960000Y-129755000D01*
X159960000Y-142675000D02*
X195640000Y-142675000D01*
X159960000Y-129755000D02*
X159960000Y-135215000D01*
X159960000Y-137215000D02*
G75*
G03*
X159960000Y-135215000I0J1000000D01*
G01*
X156384000Y-98652000D02*
X161624000Y-98652000D01*
X156384000Y-95912000D02*
X156384000Y-98652000D01*
X156384000Y-95912000D02*
X161624000Y-95912000D01*
X161624000Y-95912000D02*
X161624000Y-98652000D01*
%LPC*%
D13*
X155702000Y-151612600D03*
D14*
X158242000Y-151612600D03*
X160782000Y-151612600D03*
X163322000Y-151612600D03*
X165862000Y-151612600D03*
X168402000Y-151612600D03*
X170942000Y-151612600D03*
X173482000Y-151612600D03*
X176022000Y-151612600D03*
X178562000Y-151612600D03*
X181102000Y-151612600D03*
X183642000Y-151612600D03*
X186182000Y-151612600D03*
X188722000Y-151612600D03*
X191262000Y-151612600D03*
X193802000Y-151612600D03*
X196342000Y-151612600D03*
X198882000Y-151612600D03*
X201422000Y-151612600D03*
X203962000Y-151612600D03*
X206502000Y-151612600D03*
X209042000Y-151612600D03*
X211582000Y-151612600D03*
X214122000Y-151612600D03*
X216662000Y-151612600D03*
X219202000Y-151612600D03*
X221742000Y-151612600D03*
X224282000Y-151612600D03*
X226822000Y-151612600D03*
X229362000Y-151612600D03*
X231902000Y-151612600D03*
X234442000Y-151612600D03*
X236982000Y-151612600D03*
X239522000Y-151612600D03*
X242062000Y-151612600D03*
X244602000Y-151612600D03*
X247142000Y-151612600D03*
X249682000Y-151612600D03*
X252222000Y-151612600D03*
D13*
X196342000Y-149072600D03*
D14*
X198882000Y-149072600D03*
X201422000Y-149072600D03*
X203962000Y-149072600D03*
X206502000Y-149072600D03*
X209042000Y-149072600D03*
X211582000Y-149072600D03*
X214122000Y-149072600D03*
X216662000Y-149072600D03*
X219202000Y-149072600D03*
D15*
X242000000Y-103000000D03*
D16*
X242000000Y-105540000D03*
X242000000Y-108080000D03*
X242000000Y-110620000D03*
X242000000Y-113160000D03*
X242000000Y-115700000D03*
X242000000Y-118240000D03*
X249620000Y-118240000D03*
X249620000Y-115700000D03*
X249620000Y-113160000D03*
X249620000Y-110620000D03*
X249620000Y-108080000D03*
X249620000Y-105540000D03*
X249620000Y-103000000D03*
D17*
X231668000Y-122428000D03*
X234168000Y-122428000D03*
X157480000Y-137480000D03*
X157480000Y-134980000D03*
D15*
X230000000Y-103000000D03*
D16*
X230000000Y-105540000D03*
X230000000Y-108080000D03*
X230000000Y-110620000D03*
X230000000Y-113160000D03*
X230000000Y-115700000D03*
X230000000Y-118240000D03*
X237620000Y-118240000D03*
X237620000Y-115700000D03*
X237620000Y-113160000D03*
X237620000Y-110620000D03*
X237620000Y-108080000D03*
X237620000Y-105540000D03*
X237620000Y-103000000D03*
D17*
X250170000Y-122428000D03*
X247670000Y-122428000D03*
D15*
X170000000Y-83000000D03*
D16*
X170000000Y-85540000D03*
X170000000Y-88080000D03*
X170000000Y-90620000D03*
X170000000Y-93160000D03*
X170000000Y-95700000D03*
X170000000Y-98240000D03*
X177620000Y-98240000D03*
X177620000Y-95700000D03*
X177620000Y-93160000D03*
X177620000Y-90620000D03*
X177620000Y-88080000D03*
X177620000Y-85540000D03*
X177620000Y-83000000D03*
D17*
X157480000Y-114620000D03*
X157480000Y-112120000D03*
D18*
X247635000Y-129047000D03*
D14*
X250175000Y-129047000D03*
X247635000Y-131587000D03*
X250175000Y-131587000D03*
X247635000Y-134127000D03*
X250175000Y-134127000D03*
X247635000Y-136667000D03*
X250175000Y-136667000D03*
X247635000Y-139207000D03*
X250175000Y-139207000D03*
X247635000Y-141747000D03*
X250175000Y-141747000D03*
X247635000Y-144287000D03*
X250175000Y-144287000D03*
X247635000Y-146827000D03*
X250175000Y-146827000D03*
D17*
X220452000Y-122428000D03*
X217952000Y-122428000D03*
D19*
X161280000Y-120975000D03*
D16*
X163820000Y-120975000D03*
X166360000Y-120975000D03*
X168900000Y-120975000D03*
X171440000Y-120975000D03*
X173980000Y-120975000D03*
X176520000Y-120975000D03*
X179060000Y-120975000D03*
X181600000Y-120975000D03*
X184140000Y-120975000D03*
X186680000Y-120975000D03*
X189220000Y-120975000D03*
X191760000Y-120975000D03*
X194300000Y-120975000D03*
X196840000Y-120975000D03*
X199380000Y-120975000D03*
X199380000Y-105735000D03*
X196840000Y-105735000D03*
X194300000Y-105735000D03*
X191760000Y-105735000D03*
X189220000Y-105735000D03*
X186680000Y-105735000D03*
X184140000Y-105735000D03*
X181600000Y-105735000D03*
X179060000Y-105735000D03*
X176520000Y-105735000D03*
X173980000Y-105735000D03*
X171440000Y-105735000D03*
X168900000Y-105735000D03*
X166360000Y-105735000D03*
X163820000Y-105735000D03*
X161280000Y-105735000D03*
D15*
X242000000Y-83000000D03*
D16*
X242000000Y-85540000D03*
X242000000Y-88080000D03*
X242000000Y-90620000D03*
X242000000Y-93160000D03*
X242000000Y-95700000D03*
X242000000Y-98240000D03*
X249620000Y-98240000D03*
X249620000Y-95700000D03*
X249620000Y-93160000D03*
X249620000Y-90620000D03*
X249620000Y-88080000D03*
X249620000Y-85540000D03*
X249620000Y-83000000D03*
D15*
X234950000Y-126492000D03*
D16*
X234950000Y-129032000D03*
X234950000Y-131572000D03*
X234950000Y-134112000D03*
X234950000Y-136652000D03*
X234950000Y-139192000D03*
X234950000Y-141732000D03*
X234950000Y-144272000D03*
X242570000Y-144272000D03*
X242570000Y-141732000D03*
X242570000Y-139192000D03*
X242570000Y-136652000D03*
X242570000Y-134112000D03*
X242570000Y-131572000D03*
X242570000Y-129032000D03*
X242570000Y-126492000D03*
D15*
X182000000Y-83000000D03*
D16*
X182000000Y-85540000D03*
X182000000Y-88080000D03*
X182000000Y-90620000D03*
X182000000Y-93160000D03*
X182000000Y-95700000D03*
X182000000Y-98240000D03*
X189620000Y-98240000D03*
X189620000Y-95700000D03*
X189620000Y-93160000D03*
X189620000Y-90620000D03*
X189620000Y-88080000D03*
X189620000Y-85540000D03*
X189620000Y-83000000D03*
D15*
X218000000Y-103000000D03*
D16*
X218000000Y-105540000D03*
X218000000Y-108080000D03*
X218000000Y-110620000D03*
X218000000Y-113160000D03*
X218000000Y-115700000D03*
X218000000Y-118240000D03*
X225620000Y-118240000D03*
X225620000Y-115700000D03*
X225620000Y-113160000D03*
X225620000Y-110620000D03*
X225620000Y-108080000D03*
X225620000Y-105540000D03*
X225620000Y-103000000D03*
D17*
X231130000Y-141752000D03*
X231130000Y-144252000D03*
X230124000Y-82824000D03*
X230124000Y-85324000D03*
X237998000Y-95778000D03*
X237998000Y-98278000D03*
D15*
X205200000Y-105918000D03*
D16*
X205200000Y-108458000D03*
X205200000Y-110998000D03*
X205200000Y-113538000D03*
X205200000Y-116078000D03*
X205200000Y-118618000D03*
X205200000Y-121158000D03*
X205200000Y-123698000D03*
X205200000Y-126238000D03*
X205200000Y-128778000D03*
X212820000Y-128778000D03*
X212820000Y-126238000D03*
X212820000Y-123698000D03*
X212820000Y-121158000D03*
X212820000Y-118618000D03*
X212820000Y-116078000D03*
X212820000Y-113538000D03*
X212820000Y-110998000D03*
X212820000Y-108458000D03*
X212820000Y-105918000D03*
D15*
X218000000Y-83000000D03*
D16*
X218000000Y-85540000D03*
X218000000Y-88080000D03*
X218000000Y-90620000D03*
X218000000Y-93160000D03*
X218000000Y-95700000D03*
X218000000Y-98240000D03*
X225620000Y-98240000D03*
X225620000Y-95700000D03*
X225620000Y-93160000D03*
X225620000Y-90620000D03*
X225620000Y-88080000D03*
X225620000Y-85540000D03*
X225620000Y-83000000D03*
D17*
X234569000Y-82824000D03*
X234569000Y-85324000D03*
D15*
X194000000Y-83000000D03*
D16*
X194000000Y-85540000D03*
X194000000Y-88080000D03*
X194000000Y-90620000D03*
X194000000Y-93160000D03*
X194000000Y-95700000D03*
X194000000Y-98240000D03*
X201620000Y-98240000D03*
X201620000Y-95700000D03*
X201620000Y-93160000D03*
X201620000Y-90620000D03*
X201620000Y-88080000D03*
X201620000Y-85540000D03*
X201620000Y-83000000D03*
D17*
X157734000Y-101727000D03*
X160234000Y-101727000D03*
X163830000Y-90170000D03*
X163830000Y-92670000D03*
D15*
X206000000Y-83000000D03*
D16*
X206000000Y-85540000D03*
X206000000Y-88080000D03*
X206000000Y-90620000D03*
X206000000Y-93160000D03*
X206000000Y-95700000D03*
X206000000Y-98240000D03*
X213620000Y-98240000D03*
X213620000Y-95700000D03*
X213620000Y-93160000D03*
X213620000Y-90620000D03*
X213620000Y-88080000D03*
X213620000Y-85540000D03*
X213620000Y-83000000D03*
D17*
X207792000Y-132842000D03*
X210292000Y-132842000D03*
D19*
X161290000Y-143835000D03*
D16*
X163830000Y-143835000D03*
X166370000Y-143835000D03*
X168910000Y-143835000D03*
X171450000Y-143835000D03*
X173990000Y-143835000D03*
X176530000Y-143835000D03*
X179070000Y-143835000D03*
X181610000Y-143835000D03*
X184150000Y-143835000D03*
X186690000Y-143835000D03*
X189230000Y-143835000D03*
X191770000Y-143835000D03*
X194310000Y-143835000D03*
X194310000Y-128595000D03*
X191770000Y-128595000D03*
X189230000Y-128595000D03*
X186690000Y-128595000D03*
X184150000Y-128595000D03*
X181610000Y-128595000D03*
X179070000Y-128595000D03*
X176530000Y-128595000D03*
X173990000Y-128595000D03*
X171450000Y-128595000D03*
X168910000Y-128595000D03*
X166370000Y-128595000D03*
X163830000Y-128595000D03*
X161290000Y-128595000D03*
D17*
X157754000Y-97282000D03*
X160254000Y-97282000D03*
M02*
