G04 #@! TF.GenerationSoftware,KiCad,Pcbnew,6.0.2+dfsg-1*
G04 #@! TF.CreationDate,2024-03-05T11:34:34-05:00*
G04 #@! TF.ProjectId,megacart-ram,6d656761-6361-4727-942d-72616d2e6b69,rev?*
G04 #@! TF.SameCoordinates,Original*
G04 #@! TF.FileFunction,Legend,Bot*
G04 #@! TF.FilePolarity,Positive*
%FSLAX46Y46*%
G04 Gerber Fmt 4.6, Leading zero omitted, Abs format (unit mm)*
G04 Created by KiCad (PCBNEW 6.0.2+dfsg-1) date 2024-03-05 11:34:34*
%MOMM*%
%LPD*%
G01*
G04 APERTURE LIST*
G04 Aperture macros list*
%AMRoundRect*
0 Rectangle with rounded corners*
0 $1 Rounding radius*
0 $2 $3 $4 $5 $6 $7 $8 $9 X,Y pos of 4 corners*
0 Add a 4 corners polygon primitive as box body*
4,1,4,$2,$3,$4,$5,$6,$7,$8,$9,$2,$3,0*
0 Add four circle primitives for the rounded corners*
1,1,$1+$1,$2,$3*
1,1,$1+$1,$4,$5*
1,1,$1+$1,$6,$7*
1,1,$1+$1,$8,$9*
0 Add four rect primitives between the rounded corners*
20,1,$1+$1,$2,$3,$4,$5,0*
20,1,$1+$1,$4,$5,$6,$7,0*
20,1,$1+$1,$6,$7,$8,$9,0*
20,1,$1+$1,$8,$9,$2,$3,0*%
G04 Aperture macros list end*
%ADD10RoundRect,0.200000X-0.800000X-0.800000X0.800000X-0.800000X0.800000X0.800000X-0.800000X0.800000X0*%
%ADD11O,2.000000X2.000000*%
%ADD12RoundRect,0.200000X0.850000X-0.850000X0.850000X0.850000X-0.850000X0.850000X-0.850000X-0.850000X0*%
%ADD13O,2.100000X2.100000*%
%ADD14C,2.000000*%
%ADD15RoundRect,0.200000X-0.850000X-0.850000X0.850000X-0.850000X0.850000X0.850000X-0.850000X0.850000X0*%
%ADD16RoundRect,0.200000X0.800000X-0.800000X0.800000X0.800000X-0.800000X0.800000X-0.800000X-0.800000X0*%
G04 APERTURE END LIST*
%LPC*%
D10*
X242000000Y-103000000D03*
D11*
X242000000Y-105540000D03*
X242000000Y-108080000D03*
X242000000Y-110620000D03*
X242000000Y-113160000D03*
X242000000Y-115700000D03*
X242000000Y-118240000D03*
X249620000Y-118240000D03*
X249620000Y-115700000D03*
X249620000Y-113160000D03*
X249620000Y-110620000D03*
X249620000Y-108080000D03*
X249620000Y-105540000D03*
X249620000Y-103000000D03*
D12*
X155702000Y-151612600D03*
D13*
X158242000Y-151612600D03*
X160782000Y-151612600D03*
X163322000Y-151612600D03*
X165862000Y-151612600D03*
X168402000Y-151612600D03*
X170942000Y-151612600D03*
X173482000Y-151612600D03*
X176022000Y-151612600D03*
X178562000Y-151612600D03*
X181102000Y-151612600D03*
X183642000Y-151612600D03*
X186182000Y-151612600D03*
X188722000Y-151612600D03*
X191262000Y-151612600D03*
X193802000Y-151612600D03*
X196342000Y-151612600D03*
X198882000Y-151612600D03*
X201422000Y-151612600D03*
X203962000Y-151612600D03*
X206502000Y-151612600D03*
X209042000Y-151612600D03*
X211582000Y-151612600D03*
X214122000Y-151612600D03*
X216662000Y-151612600D03*
X219202000Y-151612600D03*
X221742000Y-151612600D03*
X224282000Y-151612600D03*
X226822000Y-151612600D03*
X229362000Y-151612600D03*
X231902000Y-151612600D03*
X234442000Y-151612600D03*
X236982000Y-151612600D03*
X239522000Y-151612600D03*
X242062000Y-151612600D03*
X244602000Y-151612600D03*
X247142000Y-151612600D03*
X249682000Y-151612600D03*
X252222000Y-151612600D03*
D12*
X196342000Y-149072600D03*
D13*
X198882000Y-149072600D03*
X201422000Y-149072600D03*
X203962000Y-149072600D03*
X206502000Y-149072600D03*
X209042000Y-149072600D03*
X211582000Y-149072600D03*
X214122000Y-149072600D03*
X216662000Y-149072600D03*
X219202000Y-149072600D03*
D14*
X247122000Y-122047000D03*
X244622000Y-122047000D03*
X157480000Y-137480000D03*
X157480000Y-134980000D03*
X235057000Y-79248000D03*
X232557000Y-79248000D03*
D10*
X170000000Y-83000000D03*
D11*
X170000000Y-85540000D03*
X170000000Y-88080000D03*
X170000000Y-90620000D03*
X170000000Y-93160000D03*
X170000000Y-95700000D03*
X170000000Y-98240000D03*
X177620000Y-98240000D03*
X177620000Y-95700000D03*
X177620000Y-93160000D03*
X177620000Y-90620000D03*
X177620000Y-88080000D03*
X177620000Y-85540000D03*
X177620000Y-83000000D03*
D14*
X157480000Y-114620000D03*
X157480000Y-112120000D03*
D15*
X247635000Y-129047000D03*
D13*
X250175000Y-129047000D03*
X247635000Y-131587000D03*
X250175000Y-131587000D03*
X247635000Y-134127000D03*
X250175000Y-134127000D03*
X247635000Y-136667000D03*
X250175000Y-136667000D03*
X247635000Y-139207000D03*
X250175000Y-139207000D03*
X247635000Y-141747000D03*
X250175000Y-141747000D03*
X247635000Y-144287000D03*
X250175000Y-144287000D03*
X247635000Y-146827000D03*
X250175000Y-146827000D03*
D14*
X235057000Y-122047000D03*
X232557000Y-122047000D03*
D16*
X161280000Y-120975000D03*
D11*
X163820000Y-120975000D03*
X166360000Y-120975000D03*
X168900000Y-120975000D03*
X171440000Y-120975000D03*
X173980000Y-120975000D03*
X176520000Y-120975000D03*
X179060000Y-120975000D03*
X181600000Y-120975000D03*
X184140000Y-120975000D03*
X186680000Y-120975000D03*
X189220000Y-120975000D03*
X191760000Y-120975000D03*
X194300000Y-120975000D03*
X196840000Y-120975000D03*
X199380000Y-120975000D03*
X199380000Y-105735000D03*
X196840000Y-105735000D03*
X194300000Y-105735000D03*
X191760000Y-105735000D03*
X189220000Y-105735000D03*
X186680000Y-105735000D03*
X184140000Y-105735000D03*
X181600000Y-105735000D03*
X179060000Y-105735000D03*
X176520000Y-105735000D03*
X173980000Y-105735000D03*
X171440000Y-105735000D03*
X168900000Y-105735000D03*
X166360000Y-105735000D03*
X163820000Y-105735000D03*
X161280000Y-105735000D03*
D10*
X242000000Y-83000000D03*
D11*
X242000000Y-85540000D03*
X242000000Y-88080000D03*
X242000000Y-90620000D03*
X242000000Y-93160000D03*
X242000000Y-95700000D03*
X242000000Y-98240000D03*
X249620000Y-98240000D03*
X249620000Y-95700000D03*
X249620000Y-93160000D03*
X249620000Y-90620000D03*
X249620000Y-88080000D03*
X249620000Y-85540000D03*
X249620000Y-83000000D03*
D10*
X218323000Y-105918000D03*
D11*
X218323000Y-108458000D03*
X218323000Y-110998000D03*
X218323000Y-113538000D03*
X218323000Y-116078000D03*
X218323000Y-118618000D03*
X218323000Y-121158000D03*
X218323000Y-123698000D03*
X218323000Y-126238000D03*
X218323000Y-128778000D03*
X225943000Y-128778000D03*
X225943000Y-126238000D03*
X225943000Y-123698000D03*
X225943000Y-121158000D03*
X225943000Y-118618000D03*
X225943000Y-116078000D03*
X225943000Y-113538000D03*
X225943000Y-110998000D03*
X225943000Y-108458000D03*
X225943000Y-105918000D03*
X242570000Y-126492000D03*
X242570000Y-129032000D03*
X242570000Y-131572000D03*
X242570000Y-134112000D03*
X242570000Y-136652000D03*
X242570000Y-139192000D03*
X242570000Y-141732000D03*
X242570000Y-144272000D03*
X234950000Y-144272000D03*
X234950000Y-141732000D03*
X234950000Y-139192000D03*
X234950000Y-136652000D03*
X234950000Y-134112000D03*
X234950000Y-131572000D03*
X234950000Y-129032000D03*
D10*
X234950000Y-126492000D03*
X182000000Y-83000000D03*
D11*
X182000000Y-85540000D03*
X182000000Y-88080000D03*
X182000000Y-90620000D03*
X182000000Y-93160000D03*
X182000000Y-95700000D03*
X182000000Y-98240000D03*
X189620000Y-98240000D03*
X189620000Y-95700000D03*
X189620000Y-93160000D03*
X189620000Y-90620000D03*
X189620000Y-88080000D03*
X189620000Y-85540000D03*
X189620000Y-83000000D03*
D10*
X230000000Y-103000000D03*
D11*
X230000000Y-105540000D03*
X230000000Y-108080000D03*
X230000000Y-110620000D03*
X230000000Y-113160000D03*
X230000000Y-115700000D03*
X230000000Y-118240000D03*
X237620000Y-118240000D03*
X237620000Y-115700000D03*
X237620000Y-113160000D03*
X237620000Y-110620000D03*
X237620000Y-108080000D03*
X237620000Y-105540000D03*
X237620000Y-103000000D03*
D10*
X230000000Y-83000000D03*
D11*
X230000000Y-85540000D03*
X230000000Y-88080000D03*
X230000000Y-90620000D03*
X230000000Y-93160000D03*
X230000000Y-95700000D03*
X230000000Y-98240000D03*
X237620000Y-98240000D03*
X237620000Y-95700000D03*
X237620000Y-93160000D03*
X237620000Y-90620000D03*
X237620000Y-88080000D03*
X237620000Y-85540000D03*
X237620000Y-83000000D03*
D14*
X231130000Y-141752000D03*
X231130000Y-144252000D03*
X223012000Y-79248000D03*
X220512000Y-79248000D03*
X247015000Y-79248000D03*
X244515000Y-79248000D03*
D10*
X205200000Y-105918000D03*
D11*
X205200000Y-108458000D03*
X205200000Y-110998000D03*
X205200000Y-113538000D03*
X205200000Y-116078000D03*
X205200000Y-118618000D03*
X205200000Y-121158000D03*
X205200000Y-123698000D03*
X205200000Y-126238000D03*
X205200000Y-128778000D03*
X212820000Y-128778000D03*
X212820000Y-126238000D03*
X212820000Y-123698000D03*
X212820000Y-121158000D03*
X212820000Y-118618000D03*
X212820000Y-116078000D03*
X212820000Y-113538000D03*
X212820000Y-110998000D03*
X212820000Y-108458000D03*
X212820000Y-105918000D03*
D10*
X218000000Y-83000000D03*
D11*
X218000000Y-85540000D03*
X218000000Y-88080000D03*
X218000000Y-90620000D03*
X218000000Y-93160000D03*
X218000000Y-95700000D03*
X218000000Y-98240000D03*
X225620000Y-98240000D03*
X225620000Y-95700000D03*
X225620000Y-93160000D03*
X225620000Y-90620000D03*
X225620000Y-88080000D03*
X225620000Y-85540000D03*
X225620000Y-83000000D03*
D14*
X211074000Y-79248000D03*
X208574000Y-79248000D03*
D10*
X194000000Y-83000000D03*
D11*
X194000000Y-85540000D03*
X194000000Y-88080000D03*
X194000000Y-90620000D03*
X194000000Y-93160000D03*
X194000000Y-95700000D03*
X194000000Y-98240000D03*
X201620000Y-98240000D03*
X201620000Y-95700000D03*
X201620000Y-93160000D03*
X201620000Y-90620000D03*
X201620000Y-88080000D03*
X201620000Y-85540000D03*
X201620000Y-83000000D03*
D14*
X199009000Y-79248000D03*
X196509000Y-79248000D03*
X174986000Y-79248000D03*
X172486000Y-79248000D03*
D10*
X206000000Y-83000000D03*
D11*
X206000000Y-85540000D03*
X206000000Y-88080000D03*
X206000000Y-90620000D03*
X206000000Y-93160000D03*
X206000000Y-95700000D03*
X206000000Y-98240000D03*
X213620000Y-98240000D03*
X213620000Y-95700000D03*
X213620000Y-93160000D03*
X213620000Y-90620000D03*
X213620000Y-88080000D03*
X213620000Y-85540000D03*
X213620000Y-83000000D03*
D14*
X210312000Y-132715000D03*
X207812000Y-132715000D03*
D16*
X161290000Y-143835000D03*
D11*
X163830000Y-143835000D03*
X166370000Y-143835000D03*
X168910000Y-143835000D03*
X171450000Y-143835000D03*
X173990000Y-143835000D03*
X176530000Y-143835000D03*
X179070000Y-143835000D03*
X181610000Y-143835000D03*
X184150000Y-143835000D03*
X186690000Y-143835000D03*
X189230000Y-143835000D03*
X191770000Y-143835000D03*
X194310000Y-143835000D03*
X194310000Y-128595000D03*
X191770000Y-128595000D03*
X189230000Y-128595000D03*
X186690000Y-128595000D03*
X184150000Y-128595000D03*
X181610000Y-128595000D03*
X179070000Y-128595000D03*
X176530000Y-128595000D03*
X173990000Y-128595000D03*
X171450000Y-128595000D03*
X168910000Y-128595000D03*
X166370000Y-128595000D03*
X163830000Y-128595000D03*
X161290000Y-128595000D03*
D14*
X184551000Y-79248000D03*
X187051000Y-79248000D03*
X223393000Y-132715000D03*
X220893000Y-132715000D03*
M02*
