M48
; DRILL file {KiCad 6.0.2+dfsg-1} date Mon 05 Feb 2024 01:25:47 PM
; FORMAT={-:-/ absolute / metric / decimal}
; #@! TF.CreationDate,2024-02-05T13:25:47-05:00
; #@! TF.GenerationSoftware,Kicad,Pcbnew,6.0.2+dfsg-1
; #@! TF.FileFunction,Plated,1,2,PTH
FMAT,2
METRIC
; #@! TA.AperFunction,Plated,PTH,ViaDrill
T1C0.400
; #@! TA.AperFunction,Plated,PTH,ComponentDrill
T2C0.800
; #@! TA.AperFunction,Plated,PTH,ComponentDrill
T3C1.000
%
G90
G05
T1
X159.512Y-107.95
X163.83Y-95.758
X165.1Y-100.076
X166.37Y-89.408
X167.63Y-136.21
X167.64Y-97.028
X170.17Y-141.925
X171.45Y-125.73
X172.71Y-134.94
X172.71Y-141.925
X172.72Y-103.632
X173.98Y-124.978
X173.99Y-101.854
X175.25Y-134.94
X175.25Y-136.21
X175.25Y-141.925
X175.26Y-94.488
X175.26Y-101.6
X176.52Y-124.216
X177.038Y-100.838
X179.07Y-103.632
X179.324Y-101.6
X180.594Y-102.108
X181.61Y-112.268
X181.61Y-119.126
X182.88Y-115.316
X184.15Y-103.632
X184.15Y-110.998
X184.404Y-102.108
X185.928Y-116.84
X186.055Y-131.445
X187.96Y-91.948
X187.96Y-100.076
X187.96Y-132.08
X188.722Y-102.362
X189.738Y-101.6
X189.865Y-132.715
X190.5Y-110.998
X190.5Y-113.538
X191.77Y-133.35
X193.04Y-110.998
X195.58Y-104.394
X196.088Y-84.328
X196.596Y-89.408
X198.12Y-143.51
X198.882Y-132.334
X199.898Y-100.584
X201.168Y-105.918
X202.057Y-109.093
X203.708Y-84.328
X203.708Y-88.392
X205.232Y-103.632
X205.994Y-100.584
X207.01Y-112.268
X207.01Y-116.078
X207.772Y-82.296
X207.772Y-137.668
X208.699Y-86.703
X209.042Y-112.268
X210.312Y-105.918
X211.836Y-101.346
X215.45Y-90.62
X216.212Y-93.16
X219.456Y-120.142
X219.964Y-91.948
X219.964Y-100.33
X221.234Y-94.488
X222.504Y-103.124
X222.504Y-126.238
X223.52Y-137.668
X227.33Y-81.788
X227.838Y-122.428
X230.124Y-80.518
X231.902Y-127.762
X231.96Y-93.16
X232.918Y-125.476
X233.68Y-98.298
X234.442Y-118.618
X240.284Y-100.33
X240.284Y-113.792
X245.872Y-98.298
X246.888Y-95.758
X251.206Y-97.028
T2
X157.48Y-112.12
X157.48Y-114.62
X157.48Y-134.98
X157.48Y-137.48
X157.734Y-101.727
X157.754Y-97.282
X160.234Y-101.727
X160.254Y-97.282
X161.28Y-105.735
X161.28Y-120.975
X161.29Y-128.595
X161.29Y-143.835
X163.82Y-105.735
X163.82Y-120.975
X163.83Y-90.17
X163.83Y-92.67
X163.83Y-128.595
X163.83Y-143.835
X166.36Y-105.735
X166.36Y-120.975
X166.37Y-128.595
X166.37Y-143.835
X168.9Y-105.735
X168.9Y-120.975
X168.91Y-128.595
X168.91Y-143.835
X170.0Y-83.0
X170.0Y-85.54
X170.0Y-88.08
X170.0Y-90.62
X170.0Y-93.16
X170.0Y-95.7
X170.0Y-98.24
X171.44Y-105.735
X171.44Y-120.975
X171.45Y-128.595
X171.45Y-143.835
X173.98Y-105.735
X173.98Y-120.975
X173.99Y-128.595
X173.99Y-143.835
X176.52Y-105.735
X176.52Y-120.975
X176.53Y-128.595
X176.53Y-143.835
X177.62Y-83.0
X177.62Y-85.54
X177.62Y-88.08
X177.62Y-90.62
X177.62Y-93.16
X177.62Y-95.7
X177.62Y-98.24
X179.06Y-105.735
X179.06Y-120.975
X179.07Y-128.595
X179.07Y-143.835
X181.6Y-105.735
X181.6Y-120.975
X181.61Y-128.595
X181.61Y-143.835
X182.0Y-83.0
X182.0Y-85.54
X182.0Y-88.08
X182.0Y-90.62
X182.0Y-93.16
X182.0Y-95.7
X182.0Y-98.24
X184.14Y-105.735
X184.14Y-120.975
X184.15Y-128.595
X184.15Y-143.835
X186.68Y-105.735
X186.68Y-120.975
X186.69Y-128.595
X186.69Y-143.835
X189.22Y-105.735
X189.22Y-120.975
X189.23Y-128.595
X189.23Y-143.835
X189.62Y-83.0
X189.62Y-85.54
X189.62Y-88.08
X189.62Y-90.62
X189.62Y-93.16
X189.62Y-95.7
X189.62Y-98.24
X191.76Y-105.735
X191.76Y-120.975
X191.77Y-128.595
X191.77Y-143.835
X194.0Y-83.0
X194.0Y-85.54
X194.0Y-88.08
X194.0Y-90.62
X194.0Y-93.16
X194.0Y-95.7
X194.0Y-98.24
X194.3Y-105.735
X194.3Y-120.975
X194.31Y-128.595
X194.31Y-143.835
X196.84Y-105.735
X196.84Y-120.975
X199.38Y-105.735
X199.38Y-120.975
X201.62Y-83.0
X201.62Y-85.54
X201.62Y-88.08
X201.62Y-90.62
X201.62Y-93.16
X201.62Y-95.7
X201.62Y-98.24
X205.2Y-105.918
X205.2Y-108.458
X205.2Y-110.998
X205.2Y-113.538
X205.2Y-116.078
X205.2Y-118.618
X205.2Y-121.158
X205.2Y-123.698
X205.2Y-126.238
X205.2Y-128.778
X206.0Y-83.0
X206.0Y-85.54
X206.0Y-88.08
X206.0Y-90.62
X206.0Y-93.16
X206.0Y-95.7
X206.0Y-98.24
X207.792Y-132.842
X210.292Y-132.842
X212.82Y-105.918
X212.82Y-108.458
X212.82Y-110.998
X212.82Y-113.538
X212.82Y-116.078
X212.82Y-118.618
X212.82Y-121.158
X212.82Y-123.698
X212.82Y-126.238
X212.82Y-128.778
X213.62Y-83.0
X213.62Y-85.54
X213.62Y-88.08
X213.62Y-90.62
X213.62Y-93.16
X213.62Y-95.7
X213.62Y-98.24
X217.952Y-122.428
X218.0Y-83.0
X218.0Y-85.54
X218.0Y-88.08
X218.0Y-90.62
X218.0Y-93.16
X218.0Y-95.7
X218.0Y-98.24
X218.0Y-103.0
X218.0Y-105.54
X218.0Y-108.08
X218.0Y-110.62
X218.0Y-113.16
X218.0Y-115.7
X218.0Y-118.24
X220.452Y-122.428
X225.62Y-83.0
X225.62Y-85.54
X225.62Y-88.08
X225.62Y-90.62
X225.62Y-93.16
X225.62Y-95.7
X225.62Y-98.24
X225.62Y-103.0
X225.62Y-105.54
X225.62Y-108.08
X225.62Y-110.62
X225.62Y-113.16
X225.62Y-115.7
X225.62Y-118.24
X230.0Y-103.0
X230.0Y-105.54
X230.0Y-108.08
X230.0Y-110.62
X230.0Y-113.16
X230.0Y-115.7
X230.0Y-118.24
X230.124Y-82.824
X230.124Y-85.324
X231.13Y-141.752
X231.13Y-144.252
X231.668Y-122.428
X234.168Y-122.428
X234.569Y-82.824
X234.569Y-85.324
X234.95Y-126.492
X234.95Y-129.032
X234.95Y-131.572
X234.95Y-134.112
X234.95Y-136.652
X234.95Y-139.192
X234.95Y-141.732
X234.95Y-144.272
X237.62Y-103.0
X237.62Y-105.54
X237.62Y-108.08
X237.62Y-110.62
X237.62Y-113.16
X237.62Y-115.7
X237.62Y-118.24
X237.998Y-95.778
X237.998Y-98.278
X242.0Y-83.0
X242.0Y-85.54
X242.0Y-88.08
X242.0Y-90.62
X242.0Y-93.16
X242.0Y-95.7
X242.0Y-98.24
X242.0Y-103.0
X242.0Y-105.54
X242.0Y-108.08
X242.0Y-110.62
X242.0Y-113.16
X242.0Y-115.7
X242.0Y-118.24
X242.57Y-126.492
X242.57Y-129.032
X242.57Y-131.572
X242.57Y-134.112
X242.57Y-136.652
X242.57Y-139.192
X242.57Y-141.732
X242.57Y-144.272
X247.67Y-122.428
X249.62Y-83.0
X249.62Y-85.54
X249.62Y-88.08
X249.62Y-90.62
X249.62Y-93.16
X249.62Y-95.7
X249.62Y-98.24
X249.62Y-103.0
X249.62Y-105.54
X249.62Y-108.08
X249.62Y-110.62
X249.62Y-113.16
X249.62Y-115.7
X249.62Y-118.24
X250.17Y-122.428
T3
X155.702Y-151.613
X158.242Y-151.613
X160.782Y-151.613
X163.322Y-151.613
X165.862Y-151.613
X168.402Y-151.613
X170.942Y-151.613
X173.482Y-151.613
X176.022Y-151.613
X178.562Y-151.613
X181.102Y-151.613
X183.642Y-151.613
X186.182Y-151.613
X188.722Y-151.613
X191.262Y-151.613
X193.802Y-151.613
X196.342Y-149.073
X196.342Y-151.613
X198.882Y-149.073
X198.882Y-151.613
X201.422Y-149.073
X201.422Y-151.613
X203.962Y-149.073
X203.962Y-151.613
X206.502Y-149.073
X206.502Y-151.613
X209.042Y-149.073
X209.042Y-151.613
X211.582Y-149.073
X211.582Y-151.613
X214.122Y-149.073
X214.122Y-151.613
X216.662Y-149.073
X216.662Y-151.613
X219.202Y-149.073
X219.202Y-151.613
X221.742Y-151.613
X224.282Y-151.613
X226.822Y-151.613
X229.362Y-151.613
X231.902Y-151.613
X234.442Y-151.613
X236.982Y-151.613
X239.522Y-151.613
X242.062Y-151.613
X244.602Y-151.613
X247.142Y-151.613
X247.635Y-129.047
X247.635Y-131.587
X247.635Y-134.127
X247.635Y-136.667
X247.635Y-139.207
X247.635Y-141.747
X247.635Y-144.287
X247.635Y-146.827
X249.682Y-151.613
X250.175Y-129.047
X250.175Y-131.587
X250.175Y-134.127
X250.175Y-136.667
X250.175Y-139.207
X250.175Y-141.747
X250.175Y-144.287
X250.175Y-146.827
X252.222Y-151.613
T0
M30
