%FSLAX45Y45*%
G04 Gerber Fmt 4.5, Leading zero omitted, Abs format (unit mm)*
G04 Created by KiCad (PCBNEW 6.0.2+dfsg-1) date 2024-02-05 13:02:05*
%MOMM*%
%LPD*%
G01*
G04 APERTURE LIST*
%TA.AperFunction,Profile*%
%ADD10C,0.150000*%
%TD*%
%ADD11C,0.200000*%
%ADD12C,0.040000*%
%ADD13C,0.080000*%
%ADD14C,0.100000*%
G04 APERTURE END LIST*
D10*
X15389860Y-9477421D02*
X15389860Y-15336520D01*
X15389860Y-15336520D02*
X25300000Y-15336520D01*
X25299840Y-8494281D02*
G75*
G03*
X24781840Y-7976281I-518000J0D01*
G01*
X24781840Y-7976281D02*
X16891000Y-7976281D01*
X16891000Y-7976281D02*
X15389860Y-9477421D01*
X25299840Y-8494281D02*
X25300000Y-15336520D01*
D11*
D12*
X15931200Y-10775000D02*
X15971200Y-10815000D01*
X15971200Y-10775000D02*
X15931200Y-10815000D01*
X16363000Y-9555800D02*
X16403000Y-9595800D01*
X16403000Y-9555800D02*
X16363000Y-9595800D01*
X16490000Y-9987600D02*
X16530000Y-10027600D01*
X16530000Y-9987600D02*
X16490000Y-10027600D01*
X16617000Y-8920800D02*
X16657000Y-8960800D01*
X16657000Y-8920800D02*
X16617000Y-8960800D01*
X16743000Y-13601000D02*
X16783000Y-13641000D01*
X16783000Y-13601000D02*
X16743000Y-13641000D01*
X16744000Y-9682800D02*
X16784000Y-9722800D01*
X16784000Y-9682800D02*
X16744000Y-9722800D01*
X16997000Y-14172500D02*
X17037000Y-14212500D01*
X17037000Y-14172500D02*
X16997000Y-14212500D01*
X17125000Y-12553000D02*
X17165000Y-12593000D01*
X17165000Y-12553000D02*
X17125000Y-12593000D01*
X17251000Y-13474000D02*
X17291000Y-13514000D01*
X17291000Y-13474000D02*
X17251000Y-13514000D01*
X17251000Y-14172500D02*
X17291000Y-14212500D01*
X17291000Y-14172500D02*
X17251000Y-14212500D01*
X17252000Y-10343200D02*
X17292000Y-10383200D01*
X17292000Y-10343200D02*
X17252000Y-10383200D01*
X17378000Y-12477800D02*
X17418000Y-12517800D01*
X17418000Y-12477800D02*
X17378000Y-12517800D01*
X17379000Y-10165400D02*
X17419000Y-10205400D01*
X17419000Y-10165400D02*
X17379000Y-10205400D01*
X17505000Y-13474000D02*
X17545000Y-13514000D01*
X17545000Y-13474000D02*
X17505000Y-13514000D01*
X17505000Y-13601000D02*
X17545000Y-13641000D01*
X17545000Y-13601000D02*
X17505000Y-13641000D01*
X17505000Y-14172500D02*
X17545000Y-14212500D01*
X17545000Y-14172500D02*
X17505000Y-14212500D01*
X17506000Y-9428800D02*
X17546000Y-9468800D01*
X17546000Y-9428800D02*
X17506000Y-9468800D01*
X17506000Y-10140000D02*
X17546000Y-10180000D01*
X17546000Y-10140000D02*
X17506000Y-10180000D01*
X17632000Y-12401600D02*
X17672000Y-12441600D01*
X17672000Y-12401600D02*
X17632000Y-12441600D01*
X17683800Y-10063800D02*
X17723800Y-10103800D01*
X17723800Y-10063800D02*
X17683800Y-10103800D01*
X17887000Y-10343200D02*
X17927000Y-10383200D01*
X17927000Y-10343200D02*
X17887000Y-10383200D01*
X17912400Y-10140000D02*
X17952400Y-10180000D01*
X17952400Y-10140000D02*
X17912400Y-10180000D01*
X18039400Y-10190800D02*
X18079400Y-10230800D01*
X18079400Y-10190800D02*
X18039400Y-10230800D01*
X18141000Y-11206800D02*
X18181000Y-11246800D01*
X18181000Y-11206800D02*
X18141000Y-11246800D01*
X18141000Y-11892600D02*
X18181000Y-11932600D01*
X18181000Y-11892600D02*
X18141000Y-11932600D01*
X18268000Y-11511600D02*
X18308000Y-11551600D01*
X18308000Y-11511600D02*
X18268000Y-11551600D01*
X18395000Y-10343200D02*
X18435000Y-10383200D01*
X18435000Y-10343200D02*
X18395000Y-10383200D01*
X18395000Y-11079800D02*
X18435000Y-11119800D01*
X18435000Y-11079800D02*
X18395000Y-11119800D01*
X18420400Y-10190800D02*
X18460400Y-10230800D01*
X18460400Y-10190800D02*
X18420400Y-10230800D01*
X18572800Y-11664000D02*
X18612800Y-11704000D01*
X18612800Y-11664000D02*
X18572800Y-11704000D01*
X18585500Y-13124500D02*
X18625500Y-13164500D01*
X18625500Y-13124500D02*
X18585500Y-13164500D01*
X18776000Y-9174800D02*
X18816000Y-9214800D01*
X18816000Y-9174800D02*
X18776000Y-9214800D01*
X18776000Y-9987600D02*
X18816000Y-10027600D01*
X18816000Y-9987600D02*
X18776000Y-10027600D01*
X18776000Y-13188000D02*
X18816000Y-13228000D01*
X18816000Y-13188000D02*
X18776000Y-13228000D01*
X18852200Y-10216200D02*
X18892200Y-10256200D01*
X18892200Y-10216200D02*
X18852200Y-10256200D01*
X18953800Y-10140000D02*
X18993800Y-10180000D01*
X18993800Y-10140000D02*
X18953800Y-10180000D01*
X18966500Y-13251500D02*
X19006500Y-13291500D01*
X19006500Y-13251500D02*
X18966500Y-13291500D01*
X19030000Y-11079800D02*
X19070000Y-11119800D01*
X19070000Y-11079800D02*
X19030000Y-11119800D01*
X19030000Y-11333800D02*
X19070000Y-11373800D01*
X19070000Y-11333800D02*
X19030000Y-11373800D01*
X19157000Y-13315000D02*
X19197000Y-13355000D01*
X19197000Y-13315000D02*
X19157000Y-13355000D01*
X19284000Y-11079800D02*
X19324000Y-11119800D01*
X19324000Y-11079800D02*
X19284000Y-11119800D01*
X19538000Y-10419400D02*
X19578000Y-10459400D01*
X19578000Y-10419400D02*
X19538000Y-10459400D01*
X19588800Y-8412800D02*
X19628800Y-8452800D01*
X19628800Y-8412800D02*
X19588800Y-8452800D01*
X19639600Y-8920800D02*
X19679600Y-8960800D01*
X19679600Y-8920800D02*
X19639600Y-8960800D01*
X19792000Y-14331000D02*
X19832000Y-14371000D01*
X19832000Y-14331000D02*
X19792000Y-14371000D01*
X19868200Y-13213400D02*
X19908200Y-13253400D01*
X19908200Y-13213400D02*
X19868200Y-13253400D01*
X19969800Y-10038400D02*
X20009800Y-10078400D01*
X20009800Y-10038400D02*
X19969800Y-10078400D01*
X20096800Y-10571800D02*
X20136800Y-10611800D01*
X20136800Y-10571800D02*
X20096800Y-10611800D01*
X20185700Y-10889300D02*
X20225700Y-10929300D01*
X20225700Y-10889300D02*
X20185700Y-10929300D01*
X20350800Y-8412800D02*
X20390800Y-8452800D01*
X20390800Y-8412800D02*
X20350800Y-8452800D01*
X20350800Y-8819200D02*
X20390800Y-8859200D01*
X20390800Y-8819200D02*
X20350800Y-8859200D01*
X20503200Y-10343200D02*
X20543200Y-10383200D01*
X20543200Y-10343200D02*
X20503200Y-10383200D01*
X20579400Y-10038400D02*
X20619400Y-10078400D01*
X20619400Y-10038400D02*
X20579400Y-10078400D01*
X20681000Y-11206800D02*
X20721000Y-11246800D01*
X20721000Y-11206800D02*
X20681000Y-11246800D01*
X20681000Y-11587800D02*
X20721000Y-11627800D01*
X20721000Y-11587800D02*
X20681000Y-11627800D01*
X20757200Y-8209600D02*
X20797200Y-8249600D01*
X20797200Y-8209600D02*
X20757200Y-8249600D01*
X20757200Y-13746800D02*
X20797200Y-13786800D01*
X20797200Y-13746800D02*
X20757200Y-13786800D01*
X20849949Y-8650251D02*
X20889949Y-8690251D01*
X20889949Y-8650251D02*
X20849949Y-8690251D01*
X20884200Y-11206800D02*
X20924200Y-11246800D01*
X20924200Y-11206800D02*
X20884200Y-11246800D01*
X21011200Y-10571800D02*
X21051200Y-10611800D01*
X21051200Y-10571800D02*
X21011200Y-10611800D01*
X21163600Y-10114600D02*
X21203600Y-10154600D01*
X21203600Y-10114600D02*
X21163600Y-10154600D01*
X21525000Y-9042000D02*
X21565000Y-9082000D01*
X21565000Y-9042000D02*
X21525000Y-9082000D01*
X21601200Y-9296000D02*
X21641200Y-9336000D01*
X21641200Y-9296000D02*
X21601200Y-9336000D01*
X21925600Y-11994200D02*
X21965600Y-12034200D01*
X21965600Y-11994200D02*
X21925600Y-12034200D01*
X21976400Y-9174800D02*
X22016400Y-9214800D01*
X22016400Y-9174800D02*
X21976400Y-9214800D01*
X21976400Y-10013000D02*
X22016400Y-10053000D01*
X22016400Y-10013000D02*
X21976400Y-10053000D01*
X22103400Y-9428800D02*
X22143400Y-9468800D01*
X22143400Y-9428800D02*
X22103400Y-9468800D01*
X22230400Y-10292400D02*
X22270400Y-10332400D01*
X22270400Y-10292400D02*
X22230400Y-10332400D01*
X22230400Y-12603800D02*
X22270400Y-12643800D01*
X22270400Y-12603800D02*
X22230400Y-12643800D01*
X22332000Y-13746800D02*
X22372000Y-13786800D01*
X22372000Y-13746800D02*
X22332000Y-13786800D01*
X22713000Y-8158800D02*
X22753000Y-8198800D01*
X22753000Y-8158800D02*
X22713000Y-8198800D01*
X22763800Y-12222800D02*
X22803800Y-12262800D01*
X22803800Y-12222800D02*
X22763800Y-12262800D01*
X22992400Y-8031800D02*
X23032400Y-8071800D01*
X23032400Y-8031800D02*
X22992400Y-8071800D01*
X23170200Y-12756200D02*
X23210200Y-12796200D01*
X23210200Y-12756200D02*
X23170200Y-12796200D01*
X23176000Y-9296000D02*
X23216000Y-9336000D01*
X23216000Y-9296000D02*
X23176000Y-9336000D01*
X23271800Y-12527600D02*
X23311800Y-12567600D01*
X23311800Y-12527600D02*
X23271800Y-12567600D01*
X23348000Y-9809800D02*
X23388000Y-9849800D01*
X23388000Y-9809800D02*
X23348000Y-9849800D01*
X23424200Y-11841800D02*
X23464200Y-11881800D01*
X23464200Y-11841800D02*
X23424200Y-11881800D01*
X24008400Y-10013000D02*
X24048400Y-10053000D01*
X24048400Y-10013000D02*
X24008400Y-10053000D01*
X24008400Y-11359200D02*
X24048400Y-11399200D01*
X24048400Y-11359200D02*
X24008400Y-11399200D01*
X24567200Y-9809800D02*
X24607200Y-9849800D01*
X24607200Y-9809800D02*
X24567200Y-9849800D01*
X24668800Y-9555800D02*
X24708800Y-9595800D01*
X24708800Y-9555800D02*
X24668800Y-9595800D01*
X25100600Y-9682800D02*
X25140600Y-9722800D01*
X25140600Y-9682800D02*
X25100600Y-9722800D01*
D13*
X15788000Y-11212000D02*
G75*
G03*
X15788000Y-11212000I-40000J0D01*
G01*
X15788000Y-11462000D02*
G75*
G03*
X15788000Y-11462000I-40000J0D01*
G01*
X15788000Y-13498000D02*
G75*
G03*
X15788000Y-13498000I-40000J0D01*
G01*
X15788000Y-13748000D02*
G75*
G03*
X15788000Y-13748000I-40000J0D01*
G01*
X15813400Y-10172700D02*
G75*
G03*
X15813400Y-10172700I-40000J0D01*
G01*
X15815400Y-9728200D02*
G75*
G03*
X15815400Y-9728200I-40000J0D01*
G01*
X16063400Y-10172700D02*
G75*
G03*
X16063400Y-10172700I-40000J0D01*
G01*
X16065400Y-9728200D02*
G75*
G03*
X16065400Y-9728200I-40000J0D01*
G01*
X16168000Y-10573500D02*
G75*
G03*
X16168000Y-10573500I-40000J0D01*
G01*
X16168000Y-12097500D02*
G75*
G03*
X16168000Y-12097500I-40000J0D01*
G01*
X16169000Y-12859500D02*
G75*
G03*
X16169000Y-12859500I-40000J0D01*
G01*
X16169000Y-14383500D02*
G75*
G03*
X16169000Y-14383500I-40000J0D01*
G01*
X16422000Y-10573500D02*
G75*
G03*
X16422000Y-10573500I-40000J0D01*
G01*
X16422000Y-12097500D02*
G75*
G03*
X16422000Y-12097500I-40000J0D01*
G01*
X16423000Y-9017000D02*
G75*
G03*
X16423000Y-9017000I-40000J0D01*
G01*
X16423000Y-9267000D02*
G75*
G03*
X16423000Y-9267000I-40000J0D01*
G01*
X16423000Y-12859500D02*
G75*
G03*
X16423000Y-12859500I-40000J0D01*
G01*
X16423000Y-14383500D02*
G75*
G03*
X16423000Y-14383500I-40000J0D01*
G01*
X16676000Y-10573500D02*
G75*
G03*
X16676000Y-10573500I-40000J0D01*
G01*
X16676000Y-12097500D02*
G75*
G03*
X16676000Y-12097500I-40000J0D01*
G01*
X16677000Y-12859500D02*
G75*
G03*
X16677000Y-12859500I-40000J0D01*
G01*
X16677000Y-14383500D02*
G75*
G03*
X16677000Y-14383500I-40000J0D01*
G01*
X16930000Y-10573500D02*
G75*
G03*
X16930000Y-10573500I-40000J0D01*
G01*
X16930000Y-12097500D02*
G75*
G03*
X16930000Y-12097500I-40000J0D01*
G01*
X16931000Y-12859500D02*
G75*
G03*
X16931000Y-12859500I-40000J0D01*
G01*
X16931000Y-14383500D02*
G75*
G03*
X16931000Y-14383500I-40000J0D01*
G01*
X17040000Y-8300000D02*
G75*
G03*
X17040000Y-8300000I-40000J0D01*
G01*
X17040000Y-8554000D02*
G75*
G03*
X17040000Y-8554000I-40000J0D01*
G01*
X17040000Y-8808000D02*
G75*
G03*
X17040000Y-8808000I-40000J0D01*
G01*
X17040000Y-9062000D02*
G75*
G03*
X17040000Y-9062000I-40000J0D01*
G01*
X17040000Y-9316000D02*
G75*
G03*
X17040000Y-9316000I-40000J0D01*
G01*
X17040000Y-9570000D02*
G75*
G03*
X17040000Y-9570000I-40000J0D01*
G01*
X17040000Y-9824000D02*
G75*
G03*
X17040000Y-9824000I-40000J0D01*
G01*
X17184000Y-10573500D02*
G75*
G03*
X17184000Y-10573500I-40000J0D01*
G01*
X17184000Y-12097500D02*
G75*
G03*
X17184000Y-12097500I-40000J0D01*
G01*
X17185000Y-12859500D02*
G75*
G03*
X17185000Y-12859500I-40000J0D01*
G01*
X17185000Y-14383500D02*
G75*
G03*
X17185000Y-14383500I-40000J0D01*
G01*
X17438000Y-10573500D02*
G75*
G03*
X17438000Y-10573500I-40000J0D01*
G01*
X17438000Y-12097500D02*
G75*
G03*
X17438000Y-12097500I-40000J0D01*
G01*
X17439000Y-12859500D02*
G75*
G03*
X17439000Y-12859500I-40000J0D01*
G01*
X17439000Y-14383500D02*
G75*
G03*
X17439000Y-14383500I-40000J0D01*
G01*
X17692000Y-10573500D02*
G75*
G03*
X17692000Y-10573500I-40000J0D01*
G01*
X17692000Y-12097500D02*
G75*
G03*
X17692000Y-12097500I-40000J0D01*
G01*
X17693000Y-12859500D02*
G75*
G03*
X17693000Y-12859500I-40000J0D01*
G01*
X17693000Y-14383500D02*
G75*
G03*
X17693000Y-14383500I-40000J0D01*
G01*
X17802000Y-8300000D02*
G75*
G03*
X17802000Y-8300000I-40000J0D01*
G01*
X17802000Y-8554000D02*
G75*
G03*
X17802000Y-8554000I-40000J0D01*
G01*
X17802000Y-8808000D02*
G75*
G03*
X17802000Y-8808000I-40000J0D01*
G01*
X17802000Y-9062000D02*
G75*
G03*
X17802000Y-9062000I-40000J0D01*
G01*
X17802000Y-9316000D02*
G75*
G03*
X17802000Y-9316000I-40000J0D01*
G01*
X17802000Y-9570000D02*
G75*
G03*
X17802000Y-9570000I-40000J0D01*
G01*
X17802000Y-9824000D02*
G75*
G03*
X17802000Y-9824000I-40000J0D01*
G01*
X17946000Y-10573500D02*
G75*
G03*
X17946000Y-10573500I-40000J0D01*
G01*
X17946000Y-12097500D02*
G75*
G03*
X17946000Y-12097500I-40000J0D01*
G01*
X17947000Y-12859500D02*
G75*
G03*
X17947000Y-12859500I-40000J0D01*
G01*
X17947000Y-14383500D02*
G75*
G03*
X17947000Y-14383500I-40000J0D01*
G01*
X18200000Y-10573500D02*
G75*
G03*
X18200000Y-10573500I-40000J0D01*
G01*
X18200000Y-12097500D02*
G75*
G03*
X18200000Y-12097500I-40000J0D01*
G01*
X18201000Y-12859500D02*
G75*
G03*
X18201000Y-12859500I-40000J0D01*
G01*
X18201000Y-14383500D02*
G75*
G03*
X18201000Y-14383500I-40000J0D01*
G01*
X18240000Y-8300000D02*
G75*
G03*
X18240000Y-8300000I-40000J0D01*
G01*
X18240000Y-8554000D02*
G75*
G03*
X18240000Y-8554000I-40000J0D01*
G01*
X18240000Y-8808000D02*
G75*
G03*
X18240000Y-8808000I-40000J0D01*
G01*
X18240000Y-9062000D02*
G75*
G03*
X18240000Y-9062000I-40000J0D01*
G01*
X18240000Y-9316000D02*
G75*
G03*
X18240000Y-9316000I-40000J0D01*
G01*
X18240000Y-9570000D02*
G75*
G03*
X18240000Y-9570000I-40000J0D01*
G01*
X18240000Y-9824000D02*
G75*
G03*
X18240000Y-9824000I-40000J0D01*
G01*
X18454000Y-10573500D02*
G75*
G03*
X18454000Y-10573500I-40000J0D01*
G01*
X18454000Y-12097500D02*
G75*
G03*
X18454000Y-12097500I-40000J0D01*
G01*
X18455000Y-12859500D02*
G75*
G03*
X18455000Y-12859500I-40000J0D01*
G01*
X18455000Y-14383500D02*
G75*
G03*
X18455000Y-14383500I-40000J0D01*
G01*
X18708000Y-10573500D02*
G75*
G03*
X18708000Y-10573500I-40000J0D01*
G01*
X18708000Y-12097500D02*
G75*
G03*
X18708000Y-12097500I-40000J0D01*
G01*
X18709000Y-12859500D02*
G75*
G03*
X18709000Y-12859500I-40000J0D01*
G01*
X18709000Y-14383500D02*
G75*
G03*
X18709000Y-14383500I-40000J0D01*
G01*
X18962000Y-10573500D02*
G75*
G03*
X18962000Y-10573500I-40000J0D01*
G01*
X18962000Y-12097500D02*
G75*
G03*
X18962000Y-12097500I-40000J0D01*
G01*
X18963000Y-12859500D02*
G75*
G03*
X18963000Y-12859500I-40000J0D01*
G01*
X18963000Y-14383500D02*
G75*
G03*
X18963000Y-14383500I-40000J0D01*
G01*
X19002000Y-8300000D02*
G75*
G03*
X19002000Y-8300000I-40000J0D01*
G01*
X19002000Y-8554000D02*
G75*
G03*
X19002000Y-8554000I-40000J0D01*
G01*
X19002000Y-8808000D02*
G75*
G03*
X19002000Y-8808000I-40000J0D01*
G01*
X19002000Y-9062000D02*
G75*
G03*
X19002000Y-9062000I-40000J0D01*
G01*
X19002000Y-9316000D02*
G75*
G03*
X19002000Y-9316000I-40000J0D01*
G01*
X19002000Y-9570000D02*
G75*
G03*
X19002000Y-9570000I-40000J0D01*
G01*
X19002000Y-9824000D02*
G75*
G03*
X19002000Y-9824000I-40000J0D01*
G01*
X19216000Y-10573500D02*
G75*
G03*
X19216000Y-10573500I-40000J0D01*
G01*
X19216000Y-12097500D02*
G75*
G03*
X19216000Y-12097500I-40000J0D01*
G01*
X19217000Y-12859500D02*
G75*
G03*
X19217000Y-12859500I-40000J0D01*
G01*
X19217000Y-14383500D02*
G75*
G03*
X19217000Y-14383500I-40000J0D01*
G01*
X19440000Y-8300000D02*
G75*
G03*
X19440000Y-8300000I-40000J0D01*
G01*
X19440000Y-8554000D02*
G75*
G03*
X19440000Y-8554000I-40000J0D01*
G01*
X19440000Y-8808000D02*
G75*
G03*
X19440000Y-8808000I-40000J0D01*
G01*
X19440000Y-9062000D02*
G75*
G03*
X19440000Y-9062000I-40000J0D01*
G01*
X19440000Y-9316000D02*
G75*
G03*
X19440000Y-9316000I-40000J0D01*
G01*
X19440000Y-9570000D02*
G75*
G03*
X19440000Y-9570000I-40000J0D01*
G01*
X19440000Y-9824000D02*
G75*
G03*
X19440000Y-9824000I-40000J0D01*
G01*
X19470000Y-10573500D02*
G75*
G03*
X19470000Y-10573500I-40000J0D01*
G01*
X19470000Y-12097500D02*
G75*
G03*
X19470000Y-12097500I-40000J0D01*
G01*
X19471000Y-12859500D02*
G75*
G03*
X19471000Y-12859500I-40000J0D01*
G01*
X19471000Y-14383500D02*
G75*
G03*
X19471000Y-14383500I-40000J0D01*
G01*
X19724000Y-10573500D02*
G75*
G03*
X19724000Y-10573500I-40000J0D01*
G01*
X19724000Y-12097500D02*
G75*
G03*
X19724000Y-12097500I-40000J0D01*
G01*
X19978000Y-10573500D02*
G75*
G03*
X19978000Y-10573500I-40000J0D01*
G01*
X19978000Y-12097500D02*
G75*
G03*
X19978000Y-12097500I-40000J0D01*
G01*
X20202000Y-8300000D02*
G75*
G03*
X20202000Y-8300000I-40000J0D01*
G01*
X20202000Y-8554000D02*
G75*
G03*
X20202000Y-8554000I-40000J0D01*
G01*
X20202000Y-8808000D02*
G75*
G03*
X20202000Y-8808000I-40000J0D01*
G01*
X20202000Y-9062000D02*
G75*
G03*
X20202000Y-9062000I-40000J0D01*
G01*
X20202000Y-9316000D02*
G75*
G03*
X20202000Y-9316000I-40000J0D01*
G01*
X20202000Y-9570000D02*
G75*
G03*
X20202000Y-9570000I-40000J0D01*
G01*
X20202000Y-9824000D02*
G75*
G03*
X20202000Y-9824000I-40000J0D01*
G01*
X20560000Y-10591800D02*
G75*
G03*
X20560000Y-10591800I-40000J0D01*
G01*
X20560000Y-10845800D02*
G75*
G03*
X20560000Y-10845800I-40000J0D01*
G01*
X20560000Y-11099800D02*
G75*
G03*
X20560000Y-11099800I-40000J0D01*
G01*
X20560000Y-11353800D02*
G75*
G03*
X20560000Y-11353800I-40000J0D01*
G01*
X20560000Y-11607800D02*
G75*
G03*
X20560000Y-11607800I-40000J0D01*
G01*
X20560000Y-11861800D02*
G75*
G03*
X20560000Y-11861800I-40000J0D01*
G01*
X20560000Y-12115800D02*
G75*
G03*
X20560000Y-12115800I-40000J0D01*
G01*
X20560000Y-12369800D02*
G75*
G03*
X20560000Y-12369800I-40000J0D01*
G01*
X20560000Y-12623800D02*
G75*
G03*
X20560000Y-12623800I-40000J0D01*
G01*
X20560000Y-12877800D02*
G75*
G03*
X20560000Y-12877800I-40000J0D01*
G01*
X20640000Y-8300000D02*
G75*
G03*
X20640000Y-8300000I-40000J0D01*
G01*
X20640000Y-8554000D02*
G75*
G03*
X20640000Y-8554000I-40000J0D01*
G01*
X20640000Y-8808000D02*
G75*
G03*
X20640000Y-8808000I-40000J0D01*
G01*
X20640000Y-9062000D02*
G75*
G03*
X20640000Y-9062000I-40000J0D01*
G01*
X20640000Y-9316000D02*
G75*
G03*
X20640000Y-9316000I-40000J0D01*
G01*
X20640000Y-9570000D02*
G75*
G03*
X20640000Y-9570000I-40000J0D01*
G01*
X20640000Y-9824000D02*
G75*
G03*
X20640000Y-9824000I-40000J0D01*
G01*
X20819200Y-13284200D02*
G75*
G03*
X20819200Y-13284200I-40000J0D01*
G01*
X21069200Y-13284200D02*
G75*
G03*
X21069200Y-13284200I-40000J0D01*
G01*
X21322000Y-10591800D02*
G75*
G03*
X21322000Y-10591800I-40000J0D01*
G01*
X21322000Y-10845800D02*
G75*
G03*
X21322000Y-10845800I-40000J0D01*
G01*
X21322000Y-11099800D02*
G75*
G03*
X21322000Y-11099800I-40000J0D01*
G01*
X21322000Y-11353800D02*
G75*
G03*
X21322000Y-11353800I-40000J0D01*
G01*
X21322000Y-11607800D02*
G75*
G03*
X21322000Y-11607800I-40000J0D01*
G01*
X21322000Y-11861800D02*
G75*
G03*
X21322000Y-11861800I-40000J0D01*
G01*
X21322000Y-12115800D02*
G75*
G03*
X21322000Y-12115800I-40000J0D01*
G01*
X21322000Y-12369800D02*
G75*
G03*
X21322000Y-12369800I-40000J0D01*
G01*
X21322000Y-12623800D02*
G75*
G03*
X21322000Y-12623800I-40000J0D01*
G01*
X21322000Y-12877800D02*
G75*
G03*
X21322000Y-12877800I-40000J0D01*
G01*
X21402000Y-8300000D02*
G75*
G03*
X21402000Y-8300000I-40000J0D01*
G01*
X21402000Y-8554000D02*
G75*
G03*
X21402000Y-8554000I-40000J0D01*
G01*
X21402000Y-8808000D02*
G75*
G03*
X21402000Y-8808000I-40000J0D01*
G01*
X21402000Y-9062000D02*
G75*
G03*
X21402000Y-9062000I-40000J0D01*
G01*
X21402000Y-9316000D02*
G75*
G03*
X21402000Y-9316000I-40000J0D01*
G01*
X21402000Y-9570000D02*
G75*
G03*
X21402000Y-9570000I-40000J0D01*
G01*
X21402000Y-9824000D02*
G75*
G03*
X21402000Y-9824000I-40000J0D01*
G01*
X21835200Y-12242800D02*
G75*
G03*
X21835200Y-12242800I-40000J0D01*
G01*
X21840000Y-8300000D02*
G75*
G03*
X21840000Y-8300000I-40000J0D01*
G01*
X21840000Y-8554000D02*
G75*
G03*
X21840000Y-8554000I-40000J0D01*
G01*
X21840000Y-8808000D02*
G75*
G03*
X21840000Y-8808000I-40000J0D01*
G01*
X21840000Y-9062000D02*
G75*
G03*
X21840000Y-9062000I-40000J0D01*
G01*
X21840000Y-9316000D02*
G75*
G03*
X21840000Y-9316000I-40000J0D01*
G01*
X21840000Y-9570000D02*
G75*
G03*
X21840000Y-9570000I-40000J0D01*
G01*
X21840000Y-9824000D02*
G75*
G03*
X21840000Y-9824000I-40000J0D01*
G01*
X21840000Y-10300000D02*
G75*
G03*
X21840000Y-10300000I-40000J0D01*
G01*
X21840000Y-10554000D02*
G75*
G03*
X21840000Y-10554000I-40000J0D01*
G01*
X21840000Y-10808000D02*
G75*
G03*
X21840000Y-10808000I-40000J0D01*
G01*
X21840000Y-11062000D02*
G75*
G03*
X21840000Y-11062000I-40000J0D01*
G01*
X21840000Y-11316000D02*
G75*
G03*
X21840000Y-11316000I-40000J0D01*
G01*
X21840000Y-11570000D02*
G75*
G03*
X21840000Y-11570000I-40000J0D01*
G01*
X21840000Y-11824000D02*
G75*
G03*
X21840000Y-11824000I-40000J0D01*
G01*
X22085200Y-12242800D02*
G75*
G03*
X22085200Y-12242800I-40000J0D01*
G01*
X22602000Y-8300000D02*
G75*
G03*
X22602000Y-8300000I-40000J0D01*
G01*
X22602000Y-8554000D02*
G75*
G03*
X22602000Y-8554000I-40000J0D01*
G01*
X22602000Y-8808000D02*
G75*
G03*
X22602000Y-8808000I-40000J0D01*
G01*
X22602000Y-9062000D02*
G75*
G03*
X22602000Y-9062000I-40000J0D01*
G01*
X22602000Y-9316000D02*
G75*
G03*
X22602000Y-9316000I-40000J0D01*
G01*
X22602000Y-9570000D02*
G75*
G03*
X22602000Y-9570000I-40000J0D01*
G01*
X22602000Y-9824000D02*
G75*
G03*
X22602000Y-9824000I-40000J0D01*
G01*
X22602000Y-10300000D02*
G75*
G03*
X22602000Y-10300000I-40000J0D01*
G01*
X22602000Y-10554000D02*
G75*
G03*
X22602000Y-10554000I-40000J0D01*
G01*
X22602000Y-10808000D02*
G75*
G03*
X22602000Y-10808000I-40000J0D01*
G01*
X22602000Y-11062000D02*
G75*
G03*
X22602000Y-11062000I-40000J0D01*
G01*
X22602000Y-11316000D02*
G75*
G03*
X22602000Y-11316000I-40000J0D01*
G01*
X22602000Y-11570000D02*
G75*
G03*
X22602000Y-11570000I-40000J0D01*
G01*
X22602000Y-11824000D02*
G75*
G03*
X22602000Y-11824000I-40000J0D01*
G01*
X23040000Y-10300000D02*
G75*
G03*
X23040000Y-10300000I-40000J0D01*
G01*
X23040000Y-10554000D02*
G75*
G03*
X23040000Y-10554000I-40000J0D01*
G01*
X23040000Y-10808000D02*
G75*
G03*
X23040000Y-10808000I-40000J0D01*
G01*
X23040000Y-11062000D02*
G75*
G03*
X23040000Y-11062000I-40000J0D01*
G01*
X23040000Y-11316000D02*
G75*
G03*
X23040000Y-11316000I-40000J0D01*
G01*
X23040000Y-11570000D02*
G75*
G03*
X23040000Y-11570000I-40000J0D01*
G01*
X23040000Y-11824000D02*
G75*
G03*
X23040000Y-11824000I-40000J0D01*
G01*
X23052400Y-8282400D02*
G75*
G03*
X23052400Y-8282400I-40000J0D01*
G01*
X23052400Y-8532400D02*
G75*
G03*
X23052400Y-8532400I-40000J0D01*
G01*
X23153000Y-14175200D02*
G75*
G03*
X23153000Y-14175200I-40000J0D01*
G01*
X23153000Y-14425200D02*
G75*
G03*
X23153000Y-14425200I-40000J0D01*
G01*
X23206800Y-12242800D02*
G75*
G03*
X23206800Y-12242800I-40000J0D01*
G01*
X23456800Y-12242800D02*
G75*
G03*
X23456800Y-12242800I-40000J0D01*
G01*
X23496900Y-8282400D02*
G75*
G03*
X23496900Y-8282400I-40000J0D01*
G01*
X23496900Y-8532400D02*
G75*
G03*
X23496900Y-8532400I-40000J0D01*
G01*
X23535000Y-12649200D02*
G75*
G03*
X23535000Y-12649200I-40000J0D01*
G01*
X23535000Y-12903200D02*
G75*
G03*
X23535000Y-12903200I-40000J0D01*
G01*
X23535000Y-13157200D02*
G75*
G03*
X23535000Y-13157200I-40000J0D01*
G01*
X23535000Y-13411200D02*
G75*
G03*
X23535000Y-13411200I-40000J0D01*
G01*
X23535000Y-13665200D02*
G75*
G03*
X23535000Y-13665200I-40000J0D01*
G01*
X23535000Y-13919200D02*
G75*
G03*
X23535000Y-13919200I-40000J0D01*
G01*
X23535000Y-14173200D02*
G75*
G03*
X23535000Y-14173200I-40000J0D01*
G01*
X23535000Y-14427200D02*
G75*
G03*
X23535000Y-14427200I-40000J0D01*
G01*
X23802000Y-10300000D02*
G75*
G03*
X23802000Y-10300000I-40000J0D01*
G01*
X23802000Y-10554000D02*
G75*
G03*
X23802000Y-10554000I-40000J0D01*
G01*
X23802000Y-10808000D02*
G75*
G03*
X23802000Y-10808000I-40000J0D01*
G01*
X23802000Y-11062000D02*
G75*
G03*
X23802000Y-11062000I-40000J0D01*
G01*
X23802000Y-11316000D02*
G75*
G03*
X23802000Y-11316000I-40000J0D01*
G01*
X23802000Y-11570000D02*
G75*
G03*
X23802000Y-11570000I-40000J0D01*
G01*
X23802000Y-11824000D02*
G75*
G03*
X23802000Y-11824000I-40000J0D01*
G01*
X23839800Y-9577800D02*
G75*
G03*
X23839800Y-9577800I-40000J0D01*
G01*
X23839800Y-9827800D02*
G75*
G03*
X23839800Y-9827800I-40000J0D01*
G01*
X24240000Y-8300000D02*
G75*
G03*
X24240000Y-8300000I-40000J0D01*
G01*
X24240000Y-8554000D02*
G75*
G03*
X24240000Y-8554000I-40000J0D01*
G01*
X24240000Y-8808000D02*
G75*
G03*
X24240000Y-8808000I-40000J0D01*
G01*
X24240000Y-9062000D02*
G75*
G03*
X24240000Y-9062000I-40000J0D01*
G01*
X24240000Y-9316000D02*
G75*
G03*
X24240000Y-9316000I-40000J0D01*
G01*
X24240000Y-9570000D02*
G75*
G03*
X24240000Y-9570000I-40000J0D01*
G01*
X24240000Y-9824000D02*
G75*
G03*
X24240000Y-9824000I-40000J0D01*
G01*
X24240000Y-10300000D02*
G75*
G03*
X24240000Y-10300000I-40000J0D01*
G01*
X24240000Y-10554000D02*
G75*
G03*
X24240000Y-10554000I-40000J0D01*
G01*
X24240000Y-10808000D02*
G75*
G03*
X24240000Y-10808000I-40000J0D01*
G01*
X24240000Y-11062000D02*
G75*
G03*
X24240000Y-11062000I-40000J0D01*
G01*
X24240000Y-11316000D02*
G75*
G03*
X24240000Y-11316000I-40000J0D01*
G01*
X24240000Y-11570000D02*
G75*
G03*
X24240000Y-11570000I-40000J0D01*
G01*
X24240000Y-11824000D02*
G75*
G03*
X24240000Y-11824000I-40000J0D01*
G01*
X24297000Y-12649200D02*
G75*
G03*
X24297000Y-12649200I-40000J0D01*
G01*
X24297000Y-12903200D02*
G75*
G03*
X24297000Y-12903200I-40000J0D01*
G01*
X24297000Y-13157200D02*
G75*
G03*
X24297000Y-13157200I-40000J0D01*
G01*
X24297000Y-13411200D02*
G75*
G03*
X24297000Y-13411200I-40000J0D01*
G01*
X24297000Y-13665200D02*
G75*
G03*
X24297000Y-13665200I-40000J0D01*
G01*
X24297000Y-13919200D02*
G75*
G03*
X24297000Y-13919200I-40000J0D01*
G01*
X24297000Y-14173200D02*
G75*
G03*
X24297000Y-14173200I-40000J0D01*
G01*
X24297000Y-14427200D02*
G75*
G03*
X24297000Y-14427200I-40000J0D01*
G01*
X24807000Y-12242800D02*
G75*
G03*
X24807000Y-12242800I-40000J0D01*
G01*
X25002000Y-8300000D02*
G75*
G03*
X25002000Y-8300000I-40000J0D01*
G01*
X25002000Y-8554000D02*
G75*
G03*
X25002000Y-8554000I-40000J0D01*
G01*
X25002000Y-8808000D02*
G75*
G03*
X25002000Y-8808000I-40000J0D01*
G01*
X25002000Y-9062000D02*
G75*
G03*
X25002000Y-9062000I-40000J0D01*
G01*
X25002000Y-9316000D02*
G75*
G03*
X25002000Y-9316000I-40000J0D01*
G01*
X25002000Y-9570000D02*
G75*
G03*
X25002000Y-9570000I-40000J0D01*
G01*
X25002000Y-9824000D02*
G75*
G03*
X25002000Y-9824000I-40000J0D01*
G01*
X25002000Y-10300000D02*
G75*
G03*
X25002000Y-10300000I-40000J0D01*
G01*
X25002000Y-10554000D02*
G75*
G03*
X25002000Y-10554000I-40000J0D01*
G01*
X25002000Y-10808000D02*
G75*
G03*
X25002000Y-10808000I-40000J0D01*
G01*
X25002000Y-11062000D02*
G75*
G03*
X25002000Y-11062000I-40000J0D01*
G01*
X25002000Y-11316000D02*
G75*
G03*
X25002000Y-11316000I-40000J0D01*
G01*
X25002000Y-11570000D02*
G75*
G03*
X25002000Y-11570000I-40000J0D01*
G01*
X25002000Y-11824000D02*
G75*
G03*
X25002000Y-11824000I-40000J0D01*
G01*
X25057000Y-12242800D02*
G75*
G03*
X25057000Y-12242800I-40000J0D01*
G01*
D14*
X15570200Y-15111260D02*
X15570200Y-15211260D01*
X15520200Y-15161260D02*
X15620200Y-15161260D01*
X15824200Y-15111260D02*
X15824200Y-15211260D01*
X15774200Y-15161260D02*
X15874200Y-15161260D01*
X16078200Y-15111260D02*
X16078200Y-15211260D01*
X16028200Y-15161260D02*
X16128200Y-15161260D01*
X16332200Y-15111260D02*
X16332200Y-15211260D01*
X16282200Y-15161260D02*
X16382200Y-15161260D01*
X16586200Y-15111260D02*
X16586200Y-15211260D01*
X16536200Y-15161260D02*
X16636200Y-15161260D01*
X16840200Y-15111260D02*
X16840200Y-15211260D01*
X16790200Y-15161260D02*
X16890200Y-15161260D01*
X17094200Y-15111260D02*
X17094200Y-15211260D01*
X17044200Y-15161260D02*
X17144200Y-15161260D01*
X17348200Y-15111260D02*
X17348200Y-15211260D01*
X17298200Y-15161260D02*
X17398200Y-15161260D01*
X17602200Y-15111260D02*
X17602200Y-15211260D01*
X17552200Y-15161260D02*
X17652200Y-15161260D01*
X17856200Y-15111260D02*
X17856200Y-15211260D01*
X17806200Y-15161260D02*
X17906200Y-15161260D01*
X18110200Y-15111260D02*
X18110200Y-15211260D01*
X18060200Y-15161260D02*
X18160200Y-15161260D01*
X18364200Y-15111260D02*
X18364200Y-15211260D01*
X18314200Y-15161260D02*
X18414200Y-15161260D01*
X18618200Y-15111260D02*
X18618200Y-15211260D01*
X18568200Y-15161260D02*
X18668200Y-15161260D01*
X18872200Y-15111260D02*
X18872200Y-15211260D01*
X18822200Y-15161260D02*
X18922200Y-15161260D01*
X19126200Y-15111260D02*
X19126200Y-15211260D01*
X19076200Y-15161260D02*
X19176200Y-15161260D01*
X19380200Y-15111260D02*
X19380200Y-15211260D01*
X19330200Y-15161260D02*
X19430200Y-15161260D01*
X19634200Y-14857260D02*
X19634200Y-14957260D01*
X19584200Y-14907260D02*
X19684200Y-14907260D01*
X19634200Y-15111260D02*
X19634200Y-15211260D01*
X19584200Y-15161260D02*
X19684200Y-15161260D01*
X19888200Y-14857260D02*
X19888200Y-14957260D01*
X19838200Y-14907260D02*
X19938200Y-14907260D01*
X19888200Y-15111260D02*
X19888200Y-15211260D01*
X19838200Y-15161260D02*
X19938200Y-15161260D01*
X20142200Y-14857260D02*
X20142200Y-14957260D01*
X20092200Y-14907260D02*
X20192200Y-14907260D01*
X20142200Y-15111260D02*
X20142200Y-15211260D01*
X20092200Y-15161260D02*
X20192200Y-15161260D01*
X20396200Y-14857260D02*
X20396200Y-14957260D01*
X20346200Y-14907260D02*
X20446200Y-14907260D01*
X20396200Y-15111260D02*
X20396200Y-15211260D01*
X20346200Y-15161260D02*
X20446200Y-15161260D01*
X20650200Y-14857260D02*
X20650200Y-14957260D01*
X20600200Y-14907260D02*
X20700200Y-14907260D01*
X20650200Y-15111260D02*
X20650200Y-15211260D01*
X20600200Y-15161260D02*
X20700200Y-15161260D01*
X20904200Y-14857260D02*
X20904200Y-14957260D01*
X20854200Y-14907260D02*
X20954200Y-14907260D01*
X20904200Y-15111260D02*
X20904200Y-15211260D01*
X20854200Y-15161260D02*
X20954200Y-15161260D01*
X21158200Y-14857260D02*
X21158200Y-14957260D01*
X21108200Y-14907260D02*
X21208200Y-14907260D01*
X21158200Y-15111260D02*
X21158200Y-15211260D01*
X21108200Y-15161260D02*
X21208200Y-15161260D01*
X21412200Y-14857260D02*
X21412200Y-14957260D01*
X21362200Y-14907260D02*
X21462200Y-14907260D01*
X21412200Y-15111260D02*
X21412200Y-15211260D01*
X21362200Y-15161260D02*
X21462200Y-15161260D01*
X21666200Y-14857260D02*
X21666200Y-14957260D01*
X21616200Y-14907260D02*
X21716200Y-14907260D01*
X21666200Y-15111260D02*
X21666200Y-15211260D01*
X21616200Y-15161260D02*
X21716200Y-15161260D01*
X21920200Y-14857260D02*
X21920200Y-14957260D01*
X21870200Y-14907260D02*
X21970200Y-14907260D01*
X21920200Y-15111260D02*
X21920200Y-15211260D01*
X21870200Y-15161260D02*
X21970200Y-15161260D01*
X22174200Y-15111260D02*
X22174200Y-15211260D01*
X22124200Y-15161260D02*
X22224200Y-15161260D01*
X22428200Y-15111260D02*
X22428200Y-15211260D01*
X22378200Y-15161260D02*
X22478200Y-15161260D01*
X22682200Y-15111260D02*
X22682200Y-15211260D01*
X22632200Y-15161260D02*
X22732200Y-15161260D01*
X22936200Y-15111260D02*
X22936200Y-15211260D01*
X22886200Y-15161260D02*
X22986200Y-15161260D01*
X23190200Y-15111260D02*
X23190200Y-15211260D01*
X23140200Y-15161260D02*
X23240200Y-15161260D01*
X23444200Y-15111260D02*
X23444200Y-15211260D01*
X23394200Y-15161260D02*
X23494200Y-15161260D01*
X23698200Y-15111260D02*
X23698200Y-15211260D01*
X23648200Y-15161260D02*
X23748200Y-15161260D01*
X23952200Y-15111260D02*
X23952200Y-15211260D01*
X23902200Y-15161260D02*
X24002200Y-15161260D01*
X24206200Y-15111260D02*
X24206200Y-15211260D01*
X24156200Y-15161260D02*
X24256200Y-15161260D01*
X24460200Y-15111260D02*
X24460200Y-15211260D01*
X24410200Y-15161260D02*
X24510200Y-15161260D01*
X24714200Y-15111260D02*
X24714200Y-15211260D01*
X24664200Y-15161260D02*
X24764200Y-15161260D01*
X24763500Y-12854700D02*
X24763500Y-12954700D01*
X24713500Y-12904700D02*
X24813500Y-12904700D01*
X24763500Y-13108700D02*
X24763500Y-13208700D01*
X24713500Y-13158700D02*
X24813500Y-13158700D01*
X24763500Y-13362700D02*
X24763500Y-13462700D01*
X24713500Y-13412700D02*
X24813500Y-13412700D01*
X24763500Y-13616700D02*
X24763500Y-13716700D01*
X24713500Y-13666700D02*
X24813500Y-13666700D01*
X24763500Y-13870700D02*
X24763500Y-13970700D01*
X24713500Y-13920700D02*
X24813500Y-13920700D01*
X24763500Y-14124700D02*
X24763500Y-14224700D01*
X24713500Y-14174700D02*
X24813500Y-14174700D01*
X24763500Y-14378700D02*
X24763500Y-14478700D01*
X24713500Y-14428700D02*
X24813500Y-14428700D01*
X24763500Y-14632700D02*
X24763500Y-14732700D01*
X24713500Y-14682700D02*
X24813500Y-14682700D01*
X24968200Y-15111260D02*
X24968200Y-15211260D01*
X24918200Y-15161260D02*
X25018200Y-15161260D01*
X25017500Y-12854700D02*
X25017500Y-12954700D01*
X24967500Y-12904700D02*
X25067500Y-12904700D01*
X25017500Y-13108700D02*
X25017500Y-13208700D01*
X24967500Y-13158700D02*
X25067500Y-13158700D01*
X25017500Y-13362700D02*
X25017500Y-13462700D01*
X24967500Y-13412700D02*
X25067500Y-13412700D01*
X25017500Y-13616700D02*
X25017500Y-13716700D01*
X24967500Y-13666700D02*
X25067500Y-13666700D01*
X25017500Y-13870700D02*
X25017500Y-13970700D01*
X24967500Y-13920700D02*
X25067500Y-13920700D01*
X25017500Y-14124700D02*
X25017500Y-14224700D01*
X24967500Y-14174700D02*
X25067500Y-14174700D01*
X25017500Y-14378700D02*
X25017500Y-14478700D01*
X24967500Y-14428700D02*
X25067500Y-14428700D01*
X25017500Y-14632700D02*
X25017500Y-14732700D01*
X24967500Y-14682700D02*
X25067500Y-14682700D01*
X25222200Y-15111260D02*
X25222200Y-15211260D01*
X25172200Y-15161260D02*
X25272200Y-15161260D01*
D11*
X15639979Y-15654496D02*
X15639979Y-15454496D01*
X15687598Y-15454496D01*
X15716169Y-15464020D01*
X15735217Y-15483068D01*
X15744741Y-15502115D01*
X15754265Y-15540210D01*
X15754265Y-15568782D01*
X15744741Y-15606877D01*
X15735217Y-15625925D01*
X15716169Y-15644972D01*
X15687598Y-15654496D01*
X15639979Y-15654496D01*
X15839979Y-15654496D02*
X15839979Y-15521163D01*
X15839979Y-15559258D02*
X15849503Y-15540210D01*
X15859027Y-15530687D01*
X15878074Y-15521163D01*
X15897122Y-15521163D01*
X15963788Y-15654496D02*
X15963788Y-15521163D01*
X15963788Y-15454496D02*
X15954265Y-15464020D01*
X15963788Y-15473544D01*
X15973312Y-15464020D01*
X15963788Y-15454496D01*
X15963788Y-15473544D01*
X16087598Y-15654496D02*
X16068550Y-15644972D01*
X16059027Y-15625925D01*
X16059027Y-15454496D01*
X16192360Y-15654496D02*
X16173312Y-15644972D01*
X16163788Y-15625925D01*
X16163788Y-15454496D01*
X16420931Y-15654496D02*
X16420931Y-15454496D01*
X16487598Y-15597353D01*
X16554265Y-15454496D01*
X16554265Y-15654496D01*
X16735217Y-15654496D02*
X16735217Y-15549734D01*
X16725693Y-15530687D01*
X16706646Y-15521163D01*
X16668550Y-15521163D01*
X16649503Y-15530687D01*
X16735217Y-15644972D02*
X16716169Y-15654496D01*
X16668550Y-15654496D01*
X16649503Y-15644972D01*
X16639979Y-15625925D01*
X16639979Y-15606877D01*
X16649503Y-15587829D01*
X16668550Y-15578306D01*
X16716169Y-15578306D01*
X16735217Y-15568782D01*
X16830455Y-15521163D02*
X16830455Y-15721163D01*
X16830455Y-15530687D02*
X16849503Y-15521163D01*
X16887598Y-15521163D01*
X16906646Y-15530687D01*
X16916170Y-15540210D01*
X16925693Y-15559258D01*
X16925693Y-15616401D01*
X16916170Y-15635448D01*
X16906646Y-15644972D01*
X16887598Y-15654496D01*
X16849503Y-15654496D01*
X16830455Y-15644972D01*
X17011408Y-15635448D02*
X17020931Y-15644972D01*
X17011408Y-15654496D01*
X17001884Y-15644972D01*
X17011408Y-15635448D01*
X17011408Y-15654496D01*
X17011408Y-15530687D02*
X17020931Y-15540210D01*
X17011408Y-15549734D01*
X17001884Y-15540210D01*
X17011408Y-15530687D01*
X17011408Y-15549734D01*
D12*
X15342360Y-15964020D02*
X15382360Y-16004020D01*
X15382360Y-15964020D02*
X15342360Y-16004020D01*
D11*
X15678074Y-15874496D02*
X15697122Y-15874496D01*
X15716169Y-15884020D01*
X15725693Y-15893544D01*
X15735217Y-15912591D01*
X15744741Y-15950687D01*
X15744741Y-15998306D01*
X15735217Y-16036401D01*
X15725693Y-16055448D01*
X15716169Y-16064972D01*
X15697122Y-16074496D01*
X15678074Y-16074496D01*
X15659027Y-16064972D01*
X15649503Y-16055448D01*
X15639979Y-16036401D01*
X15630455Y-15998306D01*
X15630455Y-15950687D01*
X15639979Y-15912591D01*
X15649503Y-15893544D01*
X15659027Y-15884020D01*
X15678074Y-15874496D01*
X15830455Y-16055448D02*
X15839979Y-16064972D01*
X15830455Y-16074496D01*
X15820931Y-16064972D01*
X15830455Y-16055448D01*
X15830455Y-16074496D01*
X16011408Y-15941163D02*
X16011408Y-16074496D01*
X15963788Y-15864972D02*
X15916169Y-16007829D01*
X16039979Y-16007829D01*
X16154265Y-15874496D02*
X16173312Y-15874496D01*
X16192360Y-15884020D01*
X16201884Y-15893544D01*
X16211408Y-15912591D01*
X16220931Y-15950687D01*
X16220931Y-15998306D01*
X16211408Y-16036401D01*
X16201884Y-16055448D01*
X16192360Y-16064972D01*
X16173312Y-16074496D01*
X16154265Y-16074496D01*
X16135217Y-16064972D01*
X16125693Y-16055448D01*
X16116169Y-16036401D01*
X16106646Y-15998306D01*
X16106646Y-15950687D01*
X16116169Y-15912591D01*
X16125693Y-15893544D01*
X16135217Y-15884020D01*
X16154265Y-15874496D01*
X16344741Y-15874496D02*
X16363788Y-15874496D01*
X16382836Y-15884020D01*
X16392360Y-15893544D01*
X16401884Y-15912591D01*
X16411408Y-15950687D01*
X16411408Y-15998306D01*
X16401884Y-16036401D01*
X16392360Y-16055448D01*
X16382836Y-16064972D01*
X16363788Y-16074496D01*
X16344741Y-16074496D01*
X16325693Y-16064972D01*
X16316169Y-16055448D01*
X16306646Y-16036401D01*
X16297122Y-15998306D01*
X16297122Y-15950687D01*
X16306646Y-15912591D01*
X16316169Y-15893544D01*
X16325693Y-15884020D01*
X16344741Y-15874496D01*
X16497122Y-16074496D02*
X16497122Y-15941163D01*
X16497122Y-15960210D02*
X16506646Y-15950687D01*
X16525693Y-15941163D01*
X16554265Y-15941163D01*
X16573312Y-15950687D01*
X16582836Y-15969734D01*
X16582836Y-16074496D01*
X16582836Y-15969734D02*
X16592360Y-15950687D01*
X16611408Y-15941163D01*
X16639979Y-15941163D01*
X16659027Y-15950687D01*
X16668550Y-15969734D01*
X16668550Y-16074496D01*
X16763788Y-16074496D02*
X16763788Y-15941163D01*
X16763788Y-15960210D02*
X16773312Y-15950687D01*
X16792360Y-15941163D01*
X16820931Y-15941163D01*
X16839979Y-15950687D01*
X16849503Y-15969734D01*
X16849503Y-16074496D01*
X16849503Y-15969734D02*
X16859027Y-15950687D01*
X16878074Y-15941163D01*
X16906646Y-15941163D01*
X16925693Y-15950687D01*
X16935217Y-15969734D01*
X16935217Y-16074496D01*
X17325693Y-15864972D02*
X17154265Y-16122115D01*
X17582836Y-15874496D02*
X17601884Y-15874496D01*
X17620931Y-15884020D01*
X17630455Y-15893544D01*
X17639979Y-15912591D01*
X17649503Y-15950687D01*
X17649503Y-15998306D01*
X17639979Y-16036401D01*
X17630455Y-16055448D01*
X17620931Y-16064972D01*
X17601884Y-16074496D01*
X17582836Y-16074496D01*
X17563789Y-16064972D01*
X17554265Y-16055448D01*
X17544741Y-16036401D01*
X17535217Y-15998306D01*
X17535217Y-15950687D01*
X17544741Y-15912591D01*
X17554265Y-15893544D01*
X17563789Y-15884020D01*
X17582836Y-15874496D01*
X17735217Y-16055448D02*
X17744741Y-16064972D01*
X17735217Y-16074496D01*
X17725693Y-16064972D01*
X17735217Y-16055448D01*
X17735217Y-16074496D01*
X17868550Y-15874496D02*
X17887598Y-15874496D01*
X17906646Y-15884020D01*
X17916170Y-15893544D01*
X17925693Y-15912591D01*
X17935217Y-15950687D01*
X17935217Y-15998306D01*
X17925693Y-16036401D01*
X17916170Y-16055448D01*
X17906646Y-16064972D01*
X17887598Y-16074496D01*
X17868550Y-16074496D01*
X17849503Y-16064972D01*
X17839979Y-16055448D01*
X17830455Y-16036401D01*
X17820931Y-15998306D01*
X17820931Y-15950687D01*
X17830455Y-15912591D01*
X17839979Y-15893544D01*
X17849503Y-15884020D01*
X17868550Y-15874496D01*
X18125693Y-16074496D02*
X18011408Y-16074496D01*
X18068550Y-16074496D02*
X18068550Y-15874496D01*
X18049503Y-15903068D01*
X18030455Y-15922115D01*
X18011408Y-15931639D01*
X18306646Y-15874496D02*
X18211408Y-15874496D01*
X18201884Y-15969734D01*
X18211408Y-15960210D01*
X18230455Y-15950687D01*
X18278074Y-15950687D01*
X18297122Y-15960210D01*
X18306646Y-15969734D01*
X18316170Y-15988782D01*
X18316170Y-16036401D01*
X18306646Y-16055448D01*
X18297122Y-16064972D01*
X18278074Y-16074496D01*
X18230455Y-16074496D01*
X18211408Y-16064972D01*
X18201884Y-16055448D01*
X18382836Y-15874496D02*
X18516170Y-15874496D01*
X18430455Y-16074496D01*
X18582836Y-15874496D02*
X18582836Y-15912591D01*
X18659027Y-15874496D02*
X18659027Y-15912591D01*
X18954265Y-16150687D02*
X18944741Y-16141163D01*
X18925693Y-16112591D01*
X18916170Y-16093544D01*
X18906646Y-16064972D01*
X18897122Y-16017353D01*
X18897122Y-15979258D01*
X18906646Y-15931639D01*
X18916170Y-15903068D01*
X18925693Y-15884020D01*
X18944741Y-15855448D01*
X18954265Y-15845925D01*
X19059027Y-15960210D02*
X19039979Y-15950687D01*
X19030455Y-15941163D01*
X19020931Y-15922115D01*
X19020931Y-15912591D01*
X19030455Y-15893544D01*
X19039979Y-15884020D01*
X19059027Y-15874496D01*
X19097122Y-15874496D01*
X19116170Y-15884020D01*
X19125693Y-15893544D01*
X19135217Y-15912591D01*
X19135217Y-15922115D01*
X19125693Y-15941163D01*
X19116170Y-15950687D01*
X19097122Y-15960210D01*
X19059027Y-15960210D01*
X19039979Y-15969734D01*
X19030455Y-15979258D01*
X19020931Y-15998306D01*
X19020931Y-16036401D01*
X19030455Y-16055448D01*
X19039979Y-16064972D01*
X19059027Y-16074496D01*
X19097122Y-16074496D01*
X19116170Y-16064972D01*
X19125693Y-16055448D01*
X19135217Y-16036401D01*
X19135217Y-15998306D01*
X19125693Y-15979258D01*
X19116170Y-15969734D01*
X19097122Y-15960210D01*
X19201884Y-15874496D02*
X19325693Y-15874496D01*
X19259027Y-15950687D01*
X19287598Y-15950687D01*
X19306646Y-15960210D01*
X19316170Y-15969734D01*
X19325693Y-15988782D01*
X19325693Y-16036401D01*
X19316170Y-16055448D01*
X19306646Y-16064972D01*
X19287598Y-16074496D01*
X19230455Y-16074496D01*
X19211408Y-16064972D01*
X19201884Y-16055448D01*
X19563789Y-16074496D02*
X19563789Y-15874496D01*
X19649503Y-16074496D02*
X19649503Y-15969734D01*
X19639979Y-15950687D01*
X19620931Y-15941163D01*
X19592360Y-15941163D01*
X19573312Y-15950687D01*
X19563789Y-15960210D01*
X19773312Y-16074496D02*
X19754265Y-16064972D01*
X19744741Y-16055448D01*
X19735217Y-16036401D01*
X19735217Y-15979258D01*
X19744741Y-15960210D01*
X19754265Y-15950687D01*
X19773312Y-15941163D01*
X19801884Y-15941163D01*
X19820931Y-15950687D01*
X19830455Y-15960210D01*
X19839979Y-15979258D01*
X19839979Y-16036401D01*
X19830455Y-16055448D01*
X19820931Y-16064972D01*
X19801884Y-16074496D01*
X19773312Y-16074496D01*
X19954265Y-16074496D02*
X19935217Y-16064972D01*
X19925693Y-16045925D01*
X19925693Y-15874496D01*
X20106646Y-16064972D02*
X20087598Y-16074496D01*
X20049503Y-16074496D01*
X20030455Y-16064972D01*
X20020931Y-16045925D01*
X20020931Y-15969734D01*
X20030455Y-15950687D01*
X20049503Y-15941163D01*
X20087598Y-15941163D01*
X20106646Y-15950687D01*
X20116170Y-15969734D01*
X20116170Y-15988782D01*
X20020931Y-16007829D01*
X20192360Y-16064972D02*
X20211408Y-16074496D01*
X20249503Y-16074496D01*
X20268550Y-16064972D01*
X20278074Y-16045925D01*
X20278074Y-16036401D01*
X20268550Y-16017353D01*
X20249503Y-16007829D01*
X20220931Y-16007829D01*
X20201884Y-15998306D01*
X20192360Y-15979258D01*
X20192360Y-15969734D01*
X20201884Y-15950687D01*
X20220931Y-15941163D01*
X20249503Y-15941163D01*
X20268550Y-15950687D01*
X20344741Y-16150687D02*
X20354265Y-16141163D01*
X20373312Y-16112591D01*
X20382836Y-16093544D01*
X20392360Y-16064972D01*
X20401884Y-16017353D01*
X20401884Y-15979258D01*
X20392360Y-15931639D01*
X20382836Y-15903068D01*
X20373312Y-15884020D01*
X20354265Y-15855448D01*
X20344741Y-15845925D01*
D13*
X15382360Y-16248020D02*
G75*
G03*
X15382360Y-16248020I-40000J0D01*
G01*
D11*
X15678074Y-16138496D02*
X15697122Y-16138496D01*
X15716169Y-16148020D01*
X15725693Y-16157544D01*
X15735217Y-16176591D01*
X15744741Y-16214687D01*
X15744741Y-16262306D01*
X15735217Y-16300401D01*
X15725693Y-16319448D01*
X15716169Y-16328972D01*
X15697122Y-16338496D01*
X15678074Y-16338496D01*
X15659027Y-16328972D01*
X15649503Y-16319448D01*
X15639979Y-16300401D01*
X15630455Y-16262306D01*
X15630455Y-16214687D01*
X15639979Y-16176591D01*
X15649503Y-16157544D01*
X15659027Y-16148020D01*
X15678074Y-16138496D01*
X15830455Y-16319448D02*
X15839979Y-16328972D01*
X15830455Y-16338496D01*
X15820931Y-16328972D01*
X15830455Y-16319448D01*
X15830455Y-16338496D01*
X15954265Y-16224210D02*
X15935217Y-16214687D01*
X15925693Y-16205163D01*
X15916169Y-16186115D01*
X15916169Y-16176591D01*
X15925693Y-16157544D01*
X15935217Y-16148020D01*
X15954265Y-16138496D01*
X15992360Y-16138496D01*
X16011408Y-16148020D01*
X16020931Y-16157544D01*
X16030455Y-16176591D01*
X16030455Y-16186115D01*
X16020931Y-16205163D01*
X16011408Y-16214687D01*
X15992360Y-16224210D01*
X15954265Y-16224210D01*
X15935217Y-16233734D01*
X15925693Y-16243258D01*
X15916169Y-16262306D01*
X15916169Y-16300401D01*
X15925693Y-16319448D01*
X15935217Y-16328972D01*
X15954265Y-16338496D01*
X15992360Y-16338496D01*
X16011408Y-16328972D01*
X16020931Y-16319448D01*
X16030455Y-16300401D01*
X16030455Y-16262306D01*
X16020931Y-16243258D01*
X16011408Y-16233734D01*
X15992360Y-16224210D01*
X16154265Y-16138496D02*
X16173312Y-16138496D01*
X16192360Y-16148020D01*
X16201884Y-16157544D01*
X16211408Y-16176591D01*
X16220931Y-16214687D01*
X16220931Y-16262306D01*
X16211408Y-16300401D01*
X16201884Y-16319448D01*
X16192360Y-16328972D01*
X16173312Y-16338496D01*
X16154265Y-16338496D01*
X16135217Y-16328972D01*
X16125693Y-16319448D01*
X16116169Y-16300401D01*
X16106646Y-16262306D01*
X16106646Y-16214687D01*
X16116169Y-16176591D01*
X16125693Y-16157544D01*
X16135217Y-16148020D01*
X16154265Y-16138496D01*
X16344741Y-16138496D02*
X16363788Y-16138496D01*
X16382836Y-16148020D01*
X16392360Y-16157544D01*
X16401884Y-16176591D01*
X16411408Y-16214687D01*
X16411408Y-16262306D01*
X16401884Y-16300401D01*
X16392360Y-16319448D01*
X16382836Y-16328972D01*
X16363788Y-16338496D01*
X16344741Y-16338496D01*
X16325693Y-16328972D01*
X16316169Y-16319448D01*
X16306646Y-16300401D01*
X16297122Y-16262306D01*
X16297122Y-16214687D01*
X16306646Y-16176591D01*
X16316169Y-16157544D01*
X16325693Y-16148020D01*
X16344741Y-16138496D01*
X16497122Y-16338496D02*
X16497122Y-16205163D01*
X16497122Y-16224210D02*
X16506646Y-16214687D01*
X16525693Y-16205163D01*
X16554265Y-16205163D01*
X16573312Y-16214687D01*
X16582836Y-16233734D01*
X16582836Y-16338496D01*
X16582836Y-16233734D02*
X16592360Y-16214687D01*
X16611408Y-16205163D01*
X16639979Y-16205163D01*
X16659027Y-16214687D01*
X16668550Y-16233734D01*
X16668550Y-16338496D01*
X16763788Y-16338496D02*
X16763788Y-16205163D01*
X16763788Y-16224210D02*
X16773312Y-16214687D01*
X16792360Y-16205163D01*
X16820931Y-16205163D01*
X16839979Y-16214687D01*
X16849503Y-16233734D01*
X16849503Y-16338496D01*
X16849503Y-16233734D02*
X16859027Y-16214687D01*
X16878074Y-16205163D01*
X16906646Y-16205163D01*
X16925693Y-16214687D01*
X16935217Y-16233734D01*
X16935217Y-16338496D01*
X17325693Y-16128972D02*
X17154265Y-16386115D01*
X17582836Y-16138496D02*
X17601884Y-16138496D01*
X17620931Y-16148020D01*
X17630455Y-16157544D01*
X17639979Y-16176591D01*
X17649503Y-16214687D01*
X17649503Y-16262306D01*
X17639979Y-16300401D01*
X17630455Y-16319448D01*
X17620931Y-16328972D01*
X17601884Y-16338496D01*
X17582836Y-16338496D01*
X17563789Y-16328972D01*
X17554265Y-16319448D01*
X17544741Y-16300401D01*
X17535217Y-16262306D01*
X17535217Y-16214687D01*
X17544741Y-16176591D01*
X17554265Y-16157544D01*
X17563789Y-16148020D01*
X17582836Y-16138496D01*
X17735217Y-16319448D02*
X17744741Y-16328972D01*
X17735217Y-16338496D01*
X17725693Y-16328972D01*
X17735217Y-16319448D01*
X17735217Y-16338496D01*
X17868550Y-16138496D02*
X17887598Y-16138496D01*
X17906646Y-16148020D01*
X17916170Y-16157544D01*
X17925693Y-16176591D01*
X17935217Y-16214687D01*
X17935217Y-16262306D01*
X17925693Y-16300401D01*
X17916170Y-16319448D01*
X17906646Y-16328972D01*
X17887598Y-16338496D01*
X17868550Y-16338496D01*
X17849503Y-16328972D01*
X17839979Y-16319448D01*
X17830455Y-16300401D01*
X17820931Y-16262306D01*
X17820931Y-16214687D01*
X17830455Y-16176591D01*
X17839979Y-16157544D01*
X17849503Y-16148020D01*
X17868550Y-16138496D01*
X18001884Y-16138496D02*
X18125693Y-16138496D01*
X18059027Y-16214687D01*
X18087598Y-16214687D01*
X18106646Y-16224210D01*
X18116170Y-16233734D01*
X18125693Y-16252782D01*
X18125693Y-16300401D01*
X18116170Y-16319448D01*
X18106646Y-16328972D01*
X18087598Y-16338496D01*
X18030455Y-16338496D01*
X18011408Y-16328972D01*
X18001884Y-16319448D01*
X18316170Y-16338496D02*
X18201884Y-16338496D01*
X18259027Y-16338496D02*
X18259027Y-16138496D01*
X18239979Y-16167068D01*
X18220931Y-16186115D01*
X18201884Y-16195639D01*
X18497122Y-16138496D02*
X18401884Y-16138496D01*
X18392360Y-16233734D01*
X18401884Y-16224210D01*
X18420931Y-16214687D01*
X18468550Y-16214687D01*
X18487598Y-16224210D01*
X18497122Y-16233734D01*
X18506646Y-16252782D01*
X18506646Y-16300401D01*
X18497122Y-16319448D01*
X18487598Y-16328972D01*
X18468550Y-16338496D01*
X18420931Y-16338496D01*
X18401884Y-16328972D01*
X18392360Y-16319448D01*
X18582836Y-16138496D02*
X18582836Y-16176591D01*
X18659027Y-16138496D02*
X18659027Y-16176591D01*
X18954265Y-16414687D02*
X18944741Y-16405163D01*
X18925693Y-16376591D01*
X18916170Y-16357544D01*
X18906646Y-16328972D01*
X18897122Y-16281353D01*
X18897122Y-16243258D01*
X18906646Y-16195639D01*
X18916170Y-16167068D01*
X18925693Y-16148020D01*
X18944741Y-16119448D01*
X18954265Y-16109925D01*
X19020931Y-16157544D02*
X19030455Y-16148020D01*
X19049503Y-16138496D01*
X19097122Y-16138496D01*
X19116170Y-16148020D01*
X19125693Y-16157544D01*
X19135217Y-16176591D01*
X19135217Y-16195639D01*
X19125693Y-16224210D01*
X19011408Y-16338496D01*
X19135217Y-16338496D01*
X19306646Y-16205163D02*
X19306646Y-16338496D01*
X19259027Y-16128972D02*
X19211408Y-16271829D01*
X19335217Y-16271829D01*
X19439979Y-16224210D02*
X19420931Y-16214687D01*
X19411408Y-16205163D01*
X19401884Y-16186115D01*
X19401884Y-16176591D01*
X19411408Y-16157544D01*
X19420931Y-16148020D01*
X19439979Y-16138496D01*
X19478074Y-16138496D01*
X19497122Y-16148020D01*
X19506646Y-16157544D01*
X19516170Y-16176591D01*
X19516170Y-16186115D01*
X19506646Y-16205163D01*
X19497122Y-16214687D01*
X19478074Y-16224210D01*
X19439979Y-16224210D01*
X19420931Y-16233734D01*
X19411408Y-16243258D01*
X19401884Y-16262306D01*
X19401884Y-16300401D01*
X19411408Y-16319448D01*
X19420931Y-16328972D01*
X19439979Y-16338496D01*
X19478074Y-16338496D01*
X19497122Y-16328972D01*
X19506646Y-16319448D01*
X19516170Y-16300401D01*
X19516170Y-16262306D01*
X19506646Y-16243258D01*
X19497122Y-16233734D01*
X19478074Y-16224210D01*
X19754265Y-16338496D02*
X19754265Y-16138496D01*
X19839979Y-16338496D02*
X19839979Y-16233734D01*
X19830455Y-16214687D01*
X19811408Y-16205163D01*
X19782836Y-16205163D01*
X19763789Y-16214687D01*
X19754265Y-16224210D01*
X19963789Y-16338496D02*
X19944741Y-16328972D01*
X19935217Y-16319448D01*
X19925693Y-16300401D01*
X19925693Y-16243258D01*
X19935217Y-16224210D01*
X19944741Y-16214687D01*
X19963789Y-16205163D01*
X19992360Y-16205163D01*
X20011408Y-16214687D01*
X20020931Y-16224210D01*
X20030455Y-16243258D01*
X20030455Y-16300401D01*
X20020931Y-16319448D01*
X20011408Y-16328972D01*
X19992360Y-16338496D01*
X19963789Y-16338496D01*
X20144741Y-16338496D02*
X20125693Y-16328972D01*
X20116170Y-16309925D01*
X20116170Y-16138496D01*
X20297122Y-16328972D02*
X20278074Y-16338496D01*
X20239979Y-16338496D01*
X20220931Y-16328972D01*
X20211408Y-16309925D01*
X20211408Y-16233734D01*
X20220931Y-16214687D01*
X20239979Y-16205163D01*
X20278074Y-16205163D01*
X20297122Y-16214687D01*
X20306646Y-16233734D01*
X20306646Y-16252782D01*
X20211408Y-16271829D01*
X20382836Y-16328972D02*
X20401884Y-16338496D01*
X20439979Y-16338496D01*
X20459027Y-16328972D01*
X20468550Y-16309925D01*
X20468550Y-16300401D01*
X20459027Y-16281353D01*
X20439979Y-16271829D01*
X20411408Y-16271829D01*
X20392360Y-16262306D01*
X20382836Y-16243258D01*
X20382836Y-16233734D01*
X20392360Y-16214687D01*
X20411408Y-16205163D01*
X20439979Y-16205163D01*
X20459027Y-16214687D01*
X20535217Y-16414687D02*
X20544741Y-16405163D01*
X20563789Y-16376591D01*
X20573312Y-16357544D01*
X20582836Y-16328972D01*
X20592360Y-16281353D01*
X20592360Y-16243258D01*
X20582836Y-16195639D01*
X20573312Y-16167068D01*
X20563789Y-16148020D01*
X20544741Y-16119448D01*
X20535217Y-16109925D01*
D14*
X15332360Y-16462020D02*
X15332360Y-16562020D01*
X15282360Y-16512020D02*
X15382360Y-16512020D01*
D11*
X15744741Y-16602496D02*
X15630455Y-16602496D01*
X15687598Y-16602496D02*
X15687598Y-16402496D01*
X15668550Y-16431068D01*
X15649503Y-16450115D01*
X15630455Y-16459639D01*
X15830455Y-16583448D02*
X15839979Y-16592972D01*
X15830455Y-16602496D01*
X15820931Y-16592972D01*
X15830455Y-16583448D01*
X15830455Y-16602496D01*
X15963788Y-16402496D02*
X15982836Y-16402496D01*
X16001884Y-16412020D01*
X16011408Y-16421544D01*
X16020931Y-16440591D01*
X16030455Y-16478687D01*
X16030455Y-16526306D01*
X16020931Y-16564401D01*
X16011408Y-16583448D01*
X16001884Y-16592972D01*
X15982836Y-16602496D01*
X15963788Y-16602496D01*
X15944741Y-16592972D01*
X15935217Y-16583448D01*
X15925693Y-16564401D01*
X15916169Y-16526306D01*
X15916169Y-16478687D01*
X15925693Y-16440591D01*
X15935217Y-16421544D01*
X15944741Y-16412020D01*
X15963788Y-16402496D01*
X16154265Y-16402496D02*
X16173312Y-16402496D01*
X16192360Y-16412020D01*
X16201884Y-16421544D01*
X16211408Y-16440591D01*
X16220931Y-16478687D01*
X16220931Y-16526306D01*
X16211408Y-16564401D01*
X16201884Y-16583448D01*
X16192360Y-16592972D01*
X16173312Y-16602496D01*
X16154265Y-16602496D01*
X16135217Y-16592972D01*
X16125693Y-16583448D01*
X16116169Y-16564401D01*
X16106646Y-16526306D01*
X16106646Y-16478687D01*
X16116169Y-16440591D01*
X16125693Y-16421544D01*
X16135217Y-16412020D01*
X16154265Y-16402496D01*
X16344741Y-16402496D02*
X16363788Y-16402496D01*
X16382836Y-16412020D01*
X16392360Y-16421544D01*
X16401884Y-16440591D01*
X16411408Y-16478687D01*
X16411408Y-16526306D01*
X16401884Y-16564401D01*
X16392360Y-16583448D01*
X16382836Y-16592972D01*
X16363788Y-16602496D01*
X16344741Y-16602496D01*
X16325693Y-16592972D01*
X16316169Y-16583448D01*
X16306646Y-16564401D01*
X16297122Y-16526306D01*
X16297122Y-16478687D01*
X16306646Y-16440591D01*
X16316169Y-16421544D01*
X16325693Y-16412020D01*
X16344741Y-16402496D01*
X16497122Y-16602496D02*
X16497122Y-16469163D01*
X16497122Y-16488210D02*
X16506646Y-16478687D01*
X16525693Y-16469163D01*
X16554265Y-16469163D01*
X16573312Y-16478687D01*
X16582836Y-16497734D01*
X16582836Y-16602496D01*
X16582836Y-16497734D02*
X16592360Y-16478687D01*
X16611408Y-16469163D01*
X16639979Y-16469163D01*
X16659027Y-16478687D01*
X16668550Y-16497734D01*
X16668550Y-16602496D01*
X16763788Y-16602496D02*
X16763788Y-16469163D01*
X16763788Y-16488210D02*
X16773312Y-16478687D01*
X16792360Y-16469163D01*
X16820931Y-16469163D01*
X16839979Y-16478687D01*
X16849503Y-16497734D01*
X16849503Y-16602496D01*
X16849503Y-16497734D02*
X16859027Y-16478687D01*
X16878074Y-16469163D01*
X16906646Y-16469163D01*
X16925693Y-16478687D01*
X16935217Y-16497734D01*
X16935217Y-16602496D01*
X17325693Y-16392972D02*
X17154265Y-16650115D01*
X17582836Y-16402496D02*
X17601884Y-16402496D01*
X17620931Y-16412020D01*
X17630455Y-16421544D01*
X17639979Y-16440591D01*
X17649503Y-16478687D01*
X17649503Y-16526306D01*
X17639979Y-16564401D01*
X17630455Y-16583448D01*
X17620931Y-16592972D01*
X17601884Y-16602496D01*
X17582836Y-16602496D01*
X17563789Y-16592972D01*
X17554265Y-16583448D01*
X17544741Y-16564401D01*
X17535217Y-16526306D01*
X17535217Y-16478687D01*
X17544741Y-16440591D01*
X17554265Y-16421544D01*
X17563789Y-16412020D01*
X17582836Y-16402496D01*
X17735217Y-16583448D02*
X17744741Y-16592972D01*
X17735217Y-16602496D01*
X17725693Y-16592972D01*
X17735217Y-16583448D01*
X17735217Y-16602496D01*
X17868550Y-16402496D02*
X17887598Y-16402496D01*
X17906646Y-16412020D01*
X17916170Y-16421544D01*
X17925693Y-16440591D01*
X17935217Y-16478687D01*
X17935217Y-16526306D01*
X17925693Y-16564401D01*
X17916170Y-16583448D01*
X17906646Y-16592972D01*
X17887598Y-16602496D01*
X17868550Y-16602496D01*
X17849503Y-16592972D01*
X17839979Y-16583448D01*
X17830455Y-16564401D01*
X17820931Y-16526306D01*
X17820931Y-16478687D01*
X17830455Y-16440591D01*
X17839979Y-16421544D01*
X17849503Y-16412020D01*
X17868550Y-16402496D01*
X18001884Y-16402496D02*
X18125693Y-16402496D01*
X18059027Y-16478687D01*
X18087598Y-16478687D01*
X18106646Y-16488210D01*
X18116170Y-16497734D01*
X18125693Y-16516782D01*
X18125693Y-16564401D01*
X18116170Y-16583448D01*
X18106646Y-16592972D01*
X18087598Y-16602496D01*
X18030455Y-16602496D01*
X18011408Y-16592972D01*
X18001884Y-16583448D01*
X18220931Y-16602496D02*
X18259027Y-16602496D01*
X18278074Y-16592972D01*
X18287598Y-16583448D01*
X18306646Y-16554877D01*
X18316170Y-16516782D01*
X18316170Y-16440591D01*
X18306646Y-16421544D01*
X18297122Y-16412020D01*
X18278074Y-16402496D01*
X18239979Y-16402496D01*
X18220931Y-16412020D01*
X18211408Y-16421544D01*
X18201884Y-16440591D01*
X18201884Y-16488210D01*
X18211408Y-16507258D01*
X18220931Y-16516782D01*
X18239979Y-16526306D01*
X18278074Y-16526306D01*
X18297122Y-16516782D01*
X18306646Y-16507258D01*
X18316170Y-16488210D01*
X18487598Y-16469163D02*
X18487598Y-16602496D01*
X18439979Y-16392972D02*
X18392360Y-16535829D01*
X18516170Y-16535829D01*
X18582836Y-16402496D02*
X18582836Y-16440591D01*
X18659027Y-16402496D02*
X18659027Y-16440591D01*
X18954265Y-16678687D02*
X18944741Y-16669163D01*
X18925693Y-16640591D01*
X18916170Y-16621544D01*
X18906646Y-16592972D01*
X18897122Y-16545353D01*
X18897122Y-16507258D01*
X18906646Y-16459639D01*
X18916170Y-16431068D01*
X18925693Y-16412020D01*
X18944741Y-16383448D01*
X18954265Y-16373925D01*
X19116170Y-16402496D02*
X19078074Y-16402496D01*
X19059027Y-16412020D01*
X19049503Y-16421544D01*
X19030455Y-16450115D01*
X19020931Y-16488210D01*
X19020931Y-16564401D01*
X19030455Y-16583448D01*
X19039979Y-16592972D01*
X19059027Y-16602496D01*
X19097122Y-16602496D01*
X19116170Y-16592972D01*
X19125693Y-16583448D01*
X19135217Y-16564401D01*
X19135217Y-16516782D01*
X19125693Y-16497734D01*
X19116170Y-16488210D01*
X19097122Y-16478687D01*
X19059027Y-16478687D01*
X19039979Y-16488210D01*
X19030455Y-16497734D01*
X19020931Y-16516782D01*
X19316170Y-16402496D02*
X19220931Y-16402496D01*
X19211408Y-16497734D01*
X19220931Y-16488210D01*
X19239979Y-16478687D01*
X19287598Y-16478687D01*
X19306646Y-16488210D01*
X19316170Y-16497734D01*
X19325693Y-16516782D01*
X19325693Y-16564401D01*
X19316170Y-16583448D01*
X19306646Y-16592972D01*
X19287598Y-16602496D01*
X19239979Y-16602496D01*
X19220931Y-16592972D01*
X19211408Y-16583448D01*
X19563789Y-16602496D02*
X19563789Y-16402496D01*
X19649503Y-16602496D02*
X19649503Y-16497734D01*
X19639979Y-16478687D01*
X19620931Y-16469163D01*
X19592360Y-16469163D01*
X19573312Y-16478687D01*
X19563789Y-16488210D01*
X19773312Y-16602496D02*
X19754265Y-16592972D01*
X19744741Y-16583448D01*
X19735217Y-16564401D01*
X19735217Y-16507258D01*
X19744741Y-16488210D01*
X19754265Y-16478687D01*
X19773312Y-16469163D01*
X19801884Y-16469163D01*
X19820931Y-16478687D01*
X19830455Y-16488210D01*
X19839979Y-16507258D01*
X19839979Y-16564401D01*
X19830455Y-16583448D01*
X19820931Y-16592972D01*
X19801884Y-16602496D01*
X19773312Y-16602496D01*
X19954265Y-16602496D02*
X19935217Y-16592972D01*
X19925693Y-16573925D01*
X19925693Y-16402496D01*
X20106646Y-16592972D02*
X20087598Y-16602496D01*
X20049503Y-16602496D01*
X20030455Y-16592972D01*
X20020931Y-16573925D01*
X20020931Y-16497734D01*
X20030455Y-16478687D01*
X20049503Y-16469163D01*
X20087598Y-16469163D01*
X20106646Y-16478687D01*
X20116170Y-16497734D01*
X20116170Y-16516782D01*
X20020931Y-16535829D01*
X20192360Y-16592972D02*
X20211408Y-16602496D01*
X20249503Y-16602496D01*
X20268550Y-16592972D01*
X20278074Y-16573925D01*
X20278074Y-16564401D01*
X20268550Y-16545353D01*
X20249503Y-16535829D01*
X20220931Y-16535829D01*
X20201884Y-16526306D01*
X20192360Y-16507258D01*
X20192360Y-16497734D01*
X20201884Y-16478687D01*
X20220931Y-16469163D01*
X20249503Y-16469163D01*
X20268550Y-16478687D01*
X20344741Y-16678687D02*
X20354265Y-16669163D01*
X20373312Y-16640591D01*
X20382836Y-16621544D01*
X20392360Y-16592972D01*
X20401884Y-16545353D01*
X20401884Y-16507258D01*
X20392360Y-16459639D01*
X20382836Y-16431068D01*
X20373312Y-16412020D01*
X20354265Y-16383448D01*
X20344741Y-16373925D01*
M02*
